<svg width="15" height="15" viewBox="0 0 15 15" fill="none" xmlns="http://www.w3.org/2000/svg">
<path d="M7.28315 6.03358V4.04958H5.29995V2.64958H7.28315V0.666382H8.68315V2.64958H10.6663V4.04958H8.68315V6.03358H7.28315ZM4.66635 14.6664C4.28875 14.6664 3.96661 14.533 3.69994 14.2664C3.43328 13.9997 3.29994 13.6776 3.29994 13.3C3.29994 12.9224 3.43328 12.6002 3.69994 12.3336C3.96661 12.0669 4.28875 11.9336 4.66635 11.9336C5.04448 11.9336 5.36688 12.0669 5.63354 12.3336C5.90021 12.6002 6.03355 12.9224 6.03355 13.3C6.03355 13.6776 5.90021 13.9997 5.63354 14.2664C5.36688 14.533 5.04448 14.6664 4.66635 14.6664ZM11.3167 14.6664C10.9391 14.6664 10.617 14.533 10.3503 14.2664C10.0837 13.9997 9.95035 13.6776 9.95035 13.3C9.95035 12.9224 10.0837 12.6002 10.3503 12.3336C10.617 12.0669 10.9391 11.9336 11.3167 11.9336C11.6943 11.9336 12.0165 12.0669 12.2831 12.3336C12.5498 12.6002 12.6831 12.9224 12.6831 13.3C12.6831 13.6776 12.5498 13.9997 12.2831 14.2664C12.0165 14.533 11.6943 14.6664 11.3167 14.6664ZM4.64955 11.3664C4.14981 11.3664 3.76394 11.1416 3.49194 10.692C3.21941 10.2418 3.21088 9.79465 3.46635 9.35038L4.33354 7.75038L1.96634 2.73358H0.633545V1.33358H2.84955L5.69994 7.31678H10.3335L12.8831 2.64958L14.1167 3.35038L11.5503 7.99998C11.4277 8.22238 11.2607 8.39732 11.0495 8.52478C10.8389 8.65278 10.6058 8.71678 10.3503 8.71678H5.41675L4.71674 9.96638H12.6831V11.3664H4.64955Z" fill="#1C1B1F"/>
</svg>
