<svg width="14" height="14" viewBox="0 0 14 14" fill="none" xmlns="http://www.w3.org/2000/svg">
<path d="M6.99985 11C5.88892 11 4.94439 10.6112 4.16625 9.83358C3.38865 9.05544 2.99985 8.11091 2.99985 6.99998C2.99985 5.88904 3.38865 4.94451 4.16625 4.16638C4.94439 3.38878 5.88892 2.99998 6.99985 2.99998C8.11079 2.99998 9.05532 3.38878 9.83345 4.16638C10.6111 4.94451 10.9999 5.88904 10.9999 6.99998L9.78305 6.59998C9.68332 5.91091 9.36945 5.33864 8.84145 4.88318C8.31345 4.42771 7.69959 4.19998 6.99985 4.19998C6.22225 4.19998 5.56119 4.47224 5.01665 5.01678C4.47212 5.56131 4.19985 6.22238 4.19985 6.99998C4.19985 7.69971 4.42759 8.31358 4.88305 8.84158C5.33852 9.36958 5.91079 9.68344 6.59985 9.78318L6.99985 11ZM7.73345 13.3504C7.61132 13.3722 7.48892 13.3861 7.36625 13.392C7.24412 13.3973 7.12199 13.4 6.99985 13.4C6.12199 13.4 5.29425 13.2333 4.51665 12.9C3.73905 12.5666 3.05852 12.1082 2.47505 11.5248C1.89159 10.9413 1.43319 10.2608 1.09985 9.48318C0.76652 8.70558 0.599854 7.87784 0.599854 6.99998C0.599854 6.11091 0.76652 5.28024 1.09985 4.50798C1.43319 3.73624 1.89159 3.05864 2.47505 2.47518C3.05852 1.89171 3.73905 1.43331 4.51665 1.09998C5.29425 0.766642 6.12199 0.599976 6.99985 0.599976C7.88892 0.599976 8.71959 0.766642 9.49185 1.09998C10.2636 1.43331 10.9412 1.89171 11.5247 2.47518C12.1081 3.05864 12.5665 3.73624 12.8999 4.50798C13.2332 5.28024 13.3999 6.11091 13.3999 6.99998C13.3999 7.12211 13.3972 7.24424 13.3919 7.36638C13.386 7.48904 13.3775 7.61144 13.3663 7.73358L12.1999 7.36638V6.99998C12.1999 5.55571 11.6943 4.32798 10.6831 3.31678C9.67185 2.30558 8.44412 1.79998 6.99985 1.79998C5.55559 1.79998 4.32785 2.30558 3.31665 3.31678C2.30545 4.32798 1.79985 5.55571 1.79985 6.99998C1.79985 8.44424 2.30545 9.67198 3.31665 10.6832C4.32785 11.6944 5.55559 12.2 6.99985 12.2C7.05532 12.2 7.11639 12.1973 7.18305 12.192C7.24972 12.1861 7.31079 12.1832 7.36625 12.1832L7.73345 13.3504ZM12.6663 13.8L9.89985 11.0168L8.99985 13.4L6.99985 6.99998L13.3999 8.99998L11.0167 9.88318L13.7999 12.6664L12.6663 13.8Z" fill="#1C1B1F"/>
</svg>
