<svg width="14" height="14" viewBox="0 0 14 14" fill="none" xmlns="http://www.w3.org/2000/svg">
<path d="M7.00014 13.4C6.22254 13.4 5.49481 13.2528 4.81694 12.9584C4.13908 12.664 3.54734 12.264 3.04174 11.7584C2.53614 11.2528 2.13614 10.6611 1.84174 9.98321C1.54734 9.30534 1.40014 8.57761 1.40014 7.80001C1.40014 7.02241 1.54734 6.29468 1.84174 5.61681C2.13614 4.93894 2.53614 4.34721 3.04174 3.84161C3.54734 3.33601 4.13908 2.93601 4.81694 2.64161C5.49481 2.34721 6.22254 2.20001 7.00014 2.20001C7.77774 2.20001 8.50548 2.34721 9.18334 2.64161C9.86121 2.93601 10.4529 3.33601 10.9585 3.84161C11.4641 4.34721 11.8641 4.93894 12.1585 5.61681C12.4529 6.29468 12.6001 7.02241 12.6001 7.80001C12.6001 8.57761 12.4529 9.30534 12.1585 9.98321C11.8641 10.6611 11.4641 11.2528 10.9585 11.7584C10.4529 12.264 9.86121 12.664 9.18334 12.9584C8.50548 13.2528 7.77774 13.4 7.00014 13.4ZM8.66654 10.0664L9.51694 9.21681L7.60014 7.30001V4.60001H6.40014V7.80001L8.66654 10.0664ZM2.95054 0.916809L3.80014 1.76641L0.966543 4.60001L0.116943 3.75041L2.95054 0.916809ZM11.0497 0.916809L13.8833 3.75041L13.0337 4.60001L10.2001 1.76641L11.0497 0.916809ZM7.00014 12.2C8.22254 12.2 9.26148 11.7723 10.1169 10.9168C10.9724 10.0613 11.4001 9.02241 11.4001 7.80001C11.4001 6.57761 10.9724 5.53868 10.1169 4.68321C9.26148 3.82774 8.22254 3.40001 7.00014 3.40001C5.77774 3.40001 4.73881 3.82774 3.88334 4.68321C3.02788 5.53868 2.60014 6.57761 2.60014 7.80001C2.60014 9.02241 3.02788 10.0613 3.88334 10.9168C4.73881 11.7723 5.77774 12.2 7.00014 12.2Z" fill="#1C1B1F"/>
</svg>
