<svg width="20" height="20" viewBox="0 0 20 20" fill="none" xmlns="http://www.w3.org/2000/svg">
<path d="M4.75545 14.1837C4.46255 14.4766 4.46255 14.9515 4.75545 15.2444C5.04834 15.5373 5.52321 15.5373 5.81611 15.2444L4.75545 14.1837ZM15.2442 5.81628C15.5371 5.52339 15.5371 5.04851 15.2442 4.75562C14.9513 4.46273 14.4764 4.46273 14.1835 4.75562L15.2442 5.81628ZM5.81611 15.2444L15.2442 5.81628L14.1835 4.75562L4.75545 14.1837L5.81611 15.2444Z" fill="#12904E"/>
<path d="M13.964 12.357C13.964 12.7712 14.2998 13.107 14.714 13.107C15.1282 13.107 15.464 12.7712 15.464 12.357L13.964 12.357ZM14.714 5.28594L15.464 5.28594C15.464 4.87172 15.1282 4.53594 14.714 4.53594L14.714 5.28594ZM7.64291 4.53594C7.2287 4.53594 6.89291 4.87172 6.89291 5.28594C6.89291 5.70015 7.2287 6.03594 7.64291 6.03594L7.64291 4.53594ZM15.464 12.357L15.464 5.28594L13.964 5.28594L13.964 12.357L15.464 12.357ZM14.714 4.53594L7.64291 4.53594L7.64291 6.03594L14.714 6.03594L14.714 4.53594Z" fill="#12904E"/>
</svg>
