<?xml version="1.0" standalone="no"?>
<!DOCTYPE svg PUBLIC "-//W3C//DTD SVG 20010904//EN"
 "http://www.w3.org/TR/2001/REC-SVG-20010904/DTD/svg10.dtd">
<svg version="1.0" xmlns="http://www.w3.org/2000/svg"
 width="18.000000pt" height="18.000000pt" viewBox="0 0 512.000000 512.000000"
 preserveAspectRatio="xMidYMid meet">

<g transform="translate(0.000000,512.000000) scale(0.100000,-0.100000)"
fill="#000000" stroke="none">
<path d="M4387 4870 c-282 -72 -398 -412 -217 -640 l30 -37 -227 -350 -227
-349 -50 13 c-100 26 -209 9 -299 -47 -27 -17 -53 -29 -58 -28 -4 2 -119 90
-254 197 -188 148 -244 198 -239 210 65 151 31 335 -83 449 -184 184 -496 143
-628 -82 -55 -95 -68 -241 -29 -334 8 -20 13 -41 10 -48 -5 -13 -471 -383
-493 -391 -7 -3 -22 2 -31 10 -10 9 -44 29 -77 44 -52 24 -72 28 -156 28 -90
0 -99 -2 -171 -37 -91 -45 -147 -103 -191 -196 -29 -61 -32 -76 -32 -162 0
-86 3 -101 32 -162 44 -93 100 -151 191 -196 72 -35 81 -37 171 -37 87 0 102
3 163 32 191 90 280 298 212 496 -16 46 -16 49 2 62 11 7 124 96 253 198 l234
185 39 -28 c118 -86 318 -86 436 0 l39 28 234 -185 c129 -102 242 -191 253
-198 18 -13 18 -15 0 -67 -24 -67 -23 -194 0 -258 25 -68 83 -146 138 -186 79
-58 139 -78 243 -78 81 -1 97 2 157 31 90 42 161 110 201 192 30 61 32 74 32
166 0 115 -16 169 -72 242 -19 25 -32 51 -29 58 3 8 85 136 182 287 97 150
196 303 220 339 l42 67 54 -15 c148 -40 326 29 418 162 175 254 1 606 -308
621 -42 2 -94 -1 -115 -6z m167 -162 c86 -26 166 -136 166 -228 0 -124 -116
-240 -240 -240 -63 0 -114 23 -165 75 -102 101 -102 229 0 330 70 71 145 90
239 63z m-2000 -480 c86 -26 166 -136 166 -228 0 -124 -116 -240 -240 -240
-63 0 -114 23 -165 75 -102 101 -102 229 0 330 70 71 145 90 239 63z m-1120
-880 c86 -26 166 -136 166 -228 0 -92 -80 -202 -166 -228 -94 -28 -169 -8
-239 63 -102 101 -102 229 0 330 70 71 145 90 239 63z m2240 0 c86 -26 166
-136 166 -228 0 -124 -116 -240 -240 -240 -63 0 -114 23 -165 75 -102 101
-102 229 0 330 70 71 145 90 239 63z"/>
<path d="M1006 2624 c-355 -77 -626 -327 -732 -679 -25 -82 -28 -105 -28 -255
-1 -142 2 -177 22 -249 76 -278 265 -504 524 -626 104 -49 160 -62 192 -46 30
16 50 62 41 91 -9 28 -45 60 -67 60 -10 0 -47 13 -82 29 -213 96 -387 302
-448 528 -27 104 -29 288 -4 388 142 551 773 788 1239 465 48 -33 84 -50 103
-50 57 0 92 67 64 120 -16 30 -178 133 -265 170 -161 66 -394 89 -559 54z"/>
<path d="M1065 2306 c-340 -78 -558 -410 -491 -746 30 -148 116 -292 227 -380
60 -47 98 -52 134 -15 45 44 35 77 -49 156 -141 133 -195 303 -151 472 67 257
333 419 575 352 105 -29 128 -30 155 -5 30 28 33 78 8 108 -47 55 -278 88
-408 58z"/>
<path d="M1937 2149 c-128 -19 -291 -83 -406 -161 -82 -55 -222 -207 -272
-293 -103 -179 -134 -295 -133 -495 0 -160 13 -229 65 -359 46 -114 114 -216
209 -312 132 -135 287 -222 471 -266 114 -27 328 -25 439 5 188 51 309 121
445 257 136 136 206 258 257 445 31 118 32 347 0 461 -103 376 -397 649 -769
714 -92 16 -213 18 -306 4z m333 -172 c100 -28 168 -57 243 -107 426 -278 490
-876 132 -1235 -359 -358 -957 -294 -1235 132 -89 136 -125 259 -125 433 0
174 36 297 124 432 119 182 304 308 521 354 80 17 262 12 340 -9z"/>
<path d="M1940 1825 c-176 -38 -351 -175 -429 -337 -94 -194 -94 -382 0 -576
101 -210 331 -352 569 -352 237 0 461 139 568 350 95 190 96 389 0 580 -129
257 -422 396 -708 335z m255 -160 c172 -45 305 -179 350 -352 65 -249 -94
-511 -350 -578 -251 -65 -513 94 -580 350 -89 343 237 669 580 580z"/>
<path d="M2025 1575 c-14 -13 -25 -31 -25 -39 0 -8 -13 -17 -29 -21 -47 -10
-107 -59 -130 -107 -43 -90 -15 -194 68 -253 38 -27 52 -31 138 -35 77 -4 98
-8 107 -23 8 -12 8 -22 0 -35 -9 -14 -32 -18 -143 -22 -125 -5 -134 -6 -152
-29 -26 -32 -24 -77 6 -106 19 -20 34 -25 77 -25 50 0 54 -2 68 -33 29 -62
111 -62 140 0 10 21 25 34 42 38 45 10 104 61 127 107 43 90 15 194 -68 253
-38 27 -52 31 -138 35 -77 4 -98 8 -107 23 -8 12 -8 22 0 35 9 14 32 18 143
22 125 5 134 6 152 29 26 32 24 77 -6 106 -20 21 -34 25 -80 25 -43 0 -55 3
-55 15 0 27 -47 65 -80 65 -19 0 -40 -9 -55 -25z"/>
<path d="M2985 1976 c-33 -33 -33 -79 0 -111 l24 -25 856 0 855 0 0 -120 0
-120 -755 0 -756 0 -24 -25 c-16 -15 -25 -36 -25 -55 0 -19 9 -40 25 -55 l24
-25 596 0 595 0 0 -120 0 -120 -575 0 -576 0 -24 -25 c-33 -32 -33 -78 0 -110
l24 -25 736 0 735 0 0 -120 0 -120 -785 0 -786 0 -24 -25 c-16 -15 -25 -36
-25 -55 0 -19 9 -40 25 -55 l24 -25 786 0 785 0 0 -120 0 -120 -924 0 -925 0
-27 -23 c-38 -33 -37 -81 0 -114 l27 -23 954 2 c945 3 954 3 981 24 66 49 69
59 68 247 -1 211 -1 203 0 414 1 159 -1 174 -20 199 -44 60 -67 69 -185 72
l-109 4 0 118 0 118 109 4 c118 3 141 12 185 72 19 25 21 41 21 206 0 196 -2
205 -69 254 -27 21 -36 21 -912 24 l-885 2 -24 -24z"/>
</g>
</svg>
