<svg width="24" height="24" viewBox="0 0 24 24" fill="none" xmlns="http://www.w3.org/2000/svg">
<path d="M20.7309 8H3.26906C2.56818 8 2 8.67157 2 9.5C2 10.3284 2.56818 11 3.26906 11H20.7309C21.4318 11 22 10.3284 22 9.5C22 8.67157 21.4318 8 20.7309 8Z" stroke="#7A0B28" stroke-width="1.5" stroke-miterlimit="10"/>
<path d="M20 11L18.0268 19.8172C17.8714 20.5104 17.2891 21 16.619 21H7.38102C6.71089 21 6.12809 20.5104 5.97322 19.8172L4 11" stroke="#7A0B28" stroke-width="1.5" stroke-miterlimit="10"/>
<path d="M12 13.2699V18.2416" stroke="#7A0B28" stroke-width="1.5" stroke-miterlimit="10" stroke-linecap="round"/>
<path d="M15.2178 13.2699V18.2416" stroke="#7A0B28" stroke-width="1.5" stroke-miterlimit="10" stroke-linecap="round"/>
<path d="M8.78223 13.2699V18.2416" stroke="#7A0B28" stroke-width="1.5" stroke-miterlimit="10" stroke-linecap="round"/>
<path d="M9 3L5 8" stroke="#7A0B28" stroke-width="1.5" stroke-miterlimit="10" stroke-linecap="round"/>
<path d="M15 3L19 8" stroke="#7A0B28" stroke-width="1.5" stroke-miterlimit="10" stroke-linecap="round"/>
</svg>
