<svg width="24" height="24" viewBox="0 0 24 24" fill="none" xmlns="http://www.w3.org/2000/svg">
<path d="M7.65 6.6C7.65 7.01421 7.98579 7.35 8.4 7.35C8.81421 7.35 9.15 7.01421 9.15 6.6H7.65ZM14.85 6.6C14.85 7.01421 15.1858 7.35 15.6 7.35C16.0142 7.35 16.35 7.01421 16.35 6.6H14.85ZM3.4349 9.9017C3.09743 9.66151 2.62915 9.74037 2.38896 10.0778C2.14878 10.4153 2.22764 10.8836 2.5651 11.1238L3.4349 9.9017ZM21.4349 11.1238C21.7724 10.8836 21.8512 10.4153 21.611 10.0778C21.3708 9.74037 20.9026 9.66151 20.5651 9.9017L21.4349 11.1238ZM9.9253 13.566C10.3375 13.6073 10.705 13.3066 10.7463 12.8945C10.7875 12.4823 10.4869 12.1148 10.0747 12.0735L9.9253 13.566ZM13.9253 12.0735C13.5131 12.1148 13.2125 12.4823 13.2537 12.8945C13.295 13.3066 13.6625 13.6073 14.0747 13.566L13.9253 12.0735ZM6.6 7.35H17.4V5.85H6.6V7.35ZM20.25 10.2V17.4H21.75V10.2H20.25ZM17.4 20.25H6.6V21.75H17.4V20.25ZM3.75 17.4V10.2H2.25V17.4H3.75ZM6.6 20.25C5.02599 20.25 3.75 18.974 3.75 17.4H2.25C2.25 19.8024 4.19756 21.75 6.6 21.75V20.25ZM20.25 17.4C20.25 18.974 18.974 20.25 17.4 20.25V21.75C19.8024 21.75 21.75 19.8024 21.75 17.4H20.25ZM17.4 7.35C18.974 7.35 20.25 8.62599 20.25 10.2H21.75C21.75 7.79756 19.8024 5.85 17.4 5.85V7.35ZM6.6 5.85C4.19756 5.85 2.25 7.79756 2.25 10.2H3.75C3.75 8.62599 5.02599 7.35 6.6 7.35V5.85ZM9.15 6.6V5.7H7.65V6.6H9.15ZM11.1 3.75H12.9V2.25H11.1V3.75ZM14.85 5.7V6.6H16.35V5.7H14.85ZM12.9 3.75C13.977 3.75 14.85 4.62304 14.85 5.7H16.35C16.35 3.79462 14.8054 2.25 12.9 2.25V3.75ZM9.15 5.7C9.15 4.62304 10.023 3.75 11.1 3.75V2.25C9.19462 2.25 7.65 3.79462 7.65 5.7H9.15ZM3 10.5127C2.5651 11.1238 2.56532 11.1239 2.56554 11.1241C2.56563 11.1241 2.56586 11.1243 2.56603 11.1244C2.56638 11.1247 2.56677 11.125 2.56721 11.1253C2.56807 11.1259 2.56909 11.1266 2.57028 11.1274C2.57265 11.1291 2.57567 11.1312 2.57933 11.1338C2.58666 11.1389 2.59656 11.1457 2.60901 11.1542C2.63391 11.1711 2.66902 11.1945 2.71411 11.2237C2.80428 11.282 2.93447 11.3632 3.10297 11.4607C3.43986 11.6558 3.9306 11.9165 4.56138 12.1901C5.82246 12.7372 7.64805 13.3381 9.9253 13.566L10.0747 12.0735C7.97829 11.8637 6.30388 11.311 5.15838 10.814C4.58586 10.5657 4.14666 10.3317 3.85444 10.1626C3.70838 10.078 3.59922 10.0098 3.52868 9.96413C3.49341 9.94133 3.46782 9.92419 3.45211 9.91352C3.44426 9.90818 3.43888 9.90446 3.436 9.90246C3.43456 9.90145 3.43375 9.90088 3.43356 9.90075C3.43347 9.90069 3.43353 9.90073 3.43376 9.90089C3.43387 9.90097 3.43402 9.90107 3.43421 9.90121C3.4343 9.90128 3.43447 9.9014 3.43452 9.90143C3.4347 9.90156 3.4349 9.9017 3 10.5127ZM14.0747 13.566C16.3519 13.3381 18.1775 12.7372 19.4386 12.1901C20.0694 11.9165 20.5601 11.6558 20.897 11.4607C21.0655 11.3632 21.1957 11.282 21.2859 11.2237C21.331 11.1945 21.3661 11.1711 21.391 11.1542C21.4034 11.1457 21.4133 11.1389 21.4207 11.1338C21.4243 11.1312 21.4273 11.1291 21.4297 11.1274C21.4309 11.1266 21.4319 11.1259 21.4328 11.1253C21.4332 11.125 21.4336 11.1247 21.434 11.1244C21.4341 11.1243 21.4344 11.1241 21.4345 11.1241C21.4347 11.1239 21.4349 11.1238 21 10.5127C20.5651 9.9017 20.5653 9.90156 20.5655 9.90143C20.5655 9.9014 20.5657 9.90128 20.5658 9.90121C20.566 9.90107 20.5661 9.90097 20.5662 9.90089C20.5665 9.90073 20.5665 9.90069 20.5664 9.90075C20.5663 9.90088 20.5654 9.90145 20.564 9.90246C20.5611 9.90446 20.5557 9.90818 20.5479 9.91352C20.5322 9.92419 20.5066 9.94133 20.4713 9.96413C20.4008 10.0098 20.2916 10.078 20.1456 10.1626C19.8533 10.3317 19.4141 10.5657 18.8416 10.814C17.6961 11.311 16.0217 11.8637 13.9253 12.0735L14.0747 13.566Z" fill="#0D2D75"/>
<path d="M14 12V13C14 13.01 14 13.01 14 13.02C14 14.11 13.99 15 12 15C10.02 15 10 14.12 10 13.03V12C10 11 10 11 11 11H13C14 11 14 11 14 12Z" stroke="#0D2D75" stroke-width="1.5" stroke-miterlimit="10" stroke-linecap="round" stroke-linejoin="round"/>
</svg>
