<svg width="25" height="24" viewBox="0 0 25 24" fill="none" xmlns="http://www.w3.org/2000/svg">
<path d="M3.11211 9.40421H21.0475" stroke="#1A2835" stroke-width="1.5" stroke-linecap="round" stroke-linejoin="round"/>
<path fill-rule="evenodd" clip-rule="evenodd" d="M6.85535 13.3097C6.85535 12.8955 7.19113 12.5597 7.60535 12.5597H7.61467C8.02888 12.5597 8.36467 12.8955 8.36467 13.3097C8.36467 13.7239 8.02888 14.0597 7.61467 14.0597H7.60535C7.19113 14.0597 6.85535 13.7239 6.85535 13.3097ZM12.08 12.5597C11.6658 12.5597 11.33 12.8955 11.33 13.3097C11.33 13.7239 11.6658 14.0597 12.08 14.0597H12.0893C12.5035 14.0597 12.8393 13.7239 12.8393 13.3097C12.8393 12.8955 12.5035 12.5597 12.0893 12.5597H12.08ZM16.5452 12.5597C16.131 12.5597 15.7952 12.8955 15.7952 13.3097C15.7952 13.7239 16.131 14.0597 16.5452 14.0597H16.5545C16.9688 14.0597 17.3045 13.7239 17.3045 13.3097C17.3045 12.8955 16.9688 12.5597 16.5545 12.5597H16.5452ZM16.5452 16.4462C16.131 16.4462 15.7952 16.782 15.7952 17.1962C15.7952 17.6104 16.131 17.9462 16.5452 17.9462H16.5545C16.9688 17.9462 17.3045 17.6104 17.3045 17.1962C17.3045 16.782 16.9688 16.4462 16.5545 16.4462H16.5452ZM11.33 17.1962C11.33 16.782 11.6658 16.4462 12.08 16.4462H12.0893C12.5035 16.4462 12.8393 16.782 12.8393 17.1962C12.8393 17.6104 12.5035 17.9462 12.0893 17.9462H12.08C11.6658 17.9462 11.33 17.6104 11.33 17.1962ZM7.60535 16.4462C7.19113 16.4462 6.85535 16.782 6.85535 17.1962C6.85535 17.6104 7.19113 17.9462 7.60535 17.9462H7.61467C8.02888 17.9462 8.36467 17.6104 8.36467 17.1962C8.36467 16.782 8.02888 16.4462 7.61467 16.4462H7.60535Z" fill="#1A2835"/>
<path d="M16.144 2V5.29078" stroke="#1A2835" stroke-width="1.5" stroke-linecap="round" stroke-linejoin="round"/>
<path d="M8.01543 2V5.29078" stroke="#1A2835" stroke-width="1.5" stroke-linecap="round" stroke-linejoin="round"/>
<path fill-rule="evenodd" clip-rule="evenodd" d="M16.3398 3.57919H7.81953C4.86449 3.57919 3.01875 5.21513 3.01875 8.22222V17.2719C3.01875 20.3262 4.86449 22 7.81953 22H16.3304C19.2948 22 21.1312 20.3546 21.1312 17.3475V8.22222C21.1405 5.21513 19.3041 3.57919 16.3398 3.57919Z" stroke="#1A2835" stroke-width="1.5" stroke-linecap="round" stroke-linejoin="round"/>
</svg>
