<svg width="26" height="26" viewBox="0 0 26 26" fill="none" xmlns="http://www.w3.org/2000/svg">
<path d="M20.4377 7.96172L19.7306 8.66882L20.4377 7.96172C19.4223 6.94635 17.7761 6.94635 16.7607 7.96172L11.3992 13.3232L10.0377 11.9617C9.02234 10.9464 7.3761 10.9464 6.36074 11.9617C5.34538 12.9771 5.34538 14.6233 6.36074 15.6387L9.56074 18.8387C10.5761 19.854 12.2223 19.854 13.2377 18.8387L20.4377 11.6387C21.4531 10.6233 21.4531 8.97708 20.4377 7.96172ZM1.19922 13.0002C1.19922 6.48324 6.48226 1.2002 12.9992 1.2002C19.5162 1.2002 24.7992 6.48324 24.7992 13.0002C24.7992 19.5172 19.5162 24.8002 12.9992 24.8002C6.48226 24.8002 1.19922 19.5172 1.19922 13.0002Z" fill="#00C191" stroke="#00C191" stroke-width="2"/>
</svg>
