<?xml version="1.0" standalone="no"?>
<!DOCTYPE svg PUBLIC "-//W3C//DTD SVG 20010904//EN"
 "http://www.w3.org/TR/2001/REC-SVG-20010904/DTD/svg10.dtd">
<svg version="1.0" xmlns="http://www.w3.org/2000/svg"
 width="18.000000pt" height="18.000000pt" viewBox="0 0 256.000000 256.000000"
 preserveAspectRatio="xMidYMid meet">

<g transform="translate(0.000000,256.000000) scale(0.100000,-0.100000)"
fill="#000000" stroke="none">
<path d="M725 2511 c-102 -25 -165 -104 -165 -206 0 -54 17 -98 54 -142 15
-18 24 -33 18 -33 -5 0 -30 -18 -55 -40 -62 -55 -97 -127 -97 -202 l0 -58 -95
0 c-114 0 -115 -1 -115 -120 0 -113 5 -120 90 -120 l68 0 322 -342 c177 -189
330 -349 340 -356 15 -11 20 -10 34 3 9 9 16 22 16 28 0 7 -138 158 -307 337
l-306 325 377 3 c207 1 546 1 753 0 l376 -3 -259 -276 c-403 -428 -367 -384
-338 -414 14 -13 19 -14 34 -3 10 7 163 167 340 356 l321 342 69 0 c85 0 90 7
90 120 0 118 -2 120 -109 120 l-88 0 -7 58 c-4 31 -17 80 -30 107 -22 48 -104
135 -127 135 -6 0 2 15 17 33 81 96 72 228 -22 305 -174 143 -417 -62 -312
-263 9 -17 25 -39 37 -49 l20 -19 -44 -29 c-25 -17 -45 -33 -45 -36 -1 -4 -9
-17 -20 -30 l-19 -23 -48 49 c-26 27 -57 54 -67 59 -18 10 -18 12 8 39 123
133 28 347 -154 347 -177 0 -273 -208 -157 -340 l32 -36 -25 -15 c-14 -9 -43
-35 -66 -58 l-40 -43 -40 43 c-21 23 -50 49 -63 57 l-25 16 31 39 c51 64 63
152 31 219 -23 45 -83 96 -132 110 -54 16 -57 16 -101 6z m124 -90 c43 -31 67
-100 53 -149 -33 -108 -164 -140 -239 -58 -32 34 -39 60 -34 116 9 97 137 150
220 91z m507 4 c87 -57 83 -194 -8 -241 -96 -49 -208 16 -208 122 0 109 126
178 216 119z m499 5 c132 -64 87 -262 -60 -262 -147 0 -195 200 -63 265 44 22
73 21 123 -3z m-984 -361 c71 -36 119 -118 119 -203 l0 -36 -226 0 -227 0 6
55 c17 166 182 259 328 184z m457 20 c96 -20 171 -113 172 -211 l0 -48 -220 0
-220 0 0 50 c0 111 86 200 212 219 4 1 29 -4 56 -10z m570 -20 c70 -34 121
-118 122 -201 l0 -38 -225 0 -225 0 0 36 c0 174 169 279 328 203z m322 -359
l0 -50 -940 0 -940 0 0 50 0 50 940 0 940 0 0 -50z"/>
<path d="M1166 810 c-70 -22 -155 -78 -191 -126 -14 -19 -38 -60 -53 -92 -24
-50 -27 -69 -27 -157 0 -88 3 -107 27 -157 55 -118 167 -204 296 -228 167 -30
344 66 420 227 24 51 27 70 27 158 0 91 -3 106 -32 167 -84 179 -282 267 -467
208z m257 -84 c106 -51 168 -146 175 -267 8 -143 -52 -250 -175 -311 -58 -29
-78 -33 -143 -33 -65 0 -85 5 -142 33 -114 56 -169 141 -176 270 -5 93 9 142
58 210 90 125 263 167 403 98z"/>
<path d="M1257 694 c-4 -4 -7 -18 -7 -30 0 -13 -8 -25 -18 -28 -37 -12 -65
-54 -70 -105 -4 -47 -2 -53 30 -85 22 -22 49 -37 74 -42 50 -9 64 -20 64 -54
0 -35 -21 -52 -57 -48 -21 2 -32 12 -46 41 -14 30 -23 38 -40 35 -48 -7 -24
-103 33 -133 21 -11 30 -23 30 -39 0 -13 7 -27 16 -30 21 -8 44 11 44 35 0 10
13 25 30 34 56 29 77 109 43 166 -18 30 -67 59 -101 59 -27 0 -52 26 -52 55 0
13 7 31 16 39 31 32 66 14 92 -46 12 -29 27 -34 51 -19 33 21 -11 121 -60 136
-10 3 -19 18 -21 33 -3 26 -34 42 -51 26z"/>
</g>
</svg>
