<svg width="16" height="16" viewBox="0 0 16 16" fill="none" xmlns="http://www.w3.org/2000/svg">
<path d="M8.00005 15.2C6.74458 15.2 5.59178 14.9083 4.54165 14.3248C3.49152 13.7413 2.64432 12.9608 2.00005 11.9832V14H0.800049V9.99999H4.80005V11.2H2.91685C3.45018 12.0443 4.16112 12.7221 5.04965 13.2336C5.93872 13.7445 6.92218 14 8.00005 14C8.83312 14 9.61365 13.8416 10.3416 13.5248C11.0696 13.208 11.703 12.7803 12.2416 12.2416C12.7803 11.7029 13.208 11.0696 13.5248 10.3416C13.8416 9.61359 14 8.83305 14 7.99999H15.2C15.2 8.99999 15.0112 9.93599 14.6336 10.808C14.2555 11.6805 13.7416 12.4419 13.092 13.092C12.4419 13.7416 11.6806 14.2555 10.808 14.6336C9.93605 15.0112 9.00005 15.2 8.00005 15.2ZM7.44965 12.4V11.6C7.21658 11.5445 6.89178 11.3947 6.47525 11.1504C6.05818 10.9056 5.74992 10.4333 5.55045 9.73359L6.60005 9.29999C6.62245 9.36665 6.73365 9.60265 6.93365 10.008C7.13365 10.4139 7.52245 10.6168 8.10005 10.6168C8.38912 10.6168 8.66965 10.5363 8.94165 10.3752C9.21418 10.2141 9.35045 9.95572 9.35045 9.59999C9.35045 9.30025 9.23632 9.05865 9.00805 8.87519C8.78032 8.69172 8.41658 8.51119 7.91685 8.33359C7.57232 8.21145 7.13605 8.01412 6.60805 7.74159C6.08058 7.46959 5.81685 6.97225 5.81685 6.24959C5.81685 6.21652 5.88912 5.94452 6.03365 5.43359C6.17765 4.92212 6.65525 4.57759 7.46645 4.39999V3.59999H8.56645V4.38319C9.15525 4.48345 9.56912 4.70585 9.80805 5.05039C10.047 5.39439 10.1888 5.63865 10.2336 5.78319L9.24965 6.19999C9.21658 6.08905 9.11125 5.92239 8.93365 5.69999C8.75552 5.47759 8.46085 5.36639 8.04965 5.36639C7.82778 5.36639 7.58352 5.43039 7.31685 5.55839C7.05018 5.68639 6.91685 5.91145 6.91685 6.23359C6.91685 6.53332 7.05285 6.76105 7.32485 6.91679C7.59738 7.07252 8.01685 7.24479 8.58325 7.43359C9.32778 7.68905 9.82512 8.00292 10.0752 8.37519C10.3248 8.74745 10.4496 9.15572 10.4496 9.59999C10.4496 10.0112 10.3664 10.3445 10.2 10.6C10.0336 10.8555 9.84192 11.0581 9.62485 11.208C9.40832 11.3584 9.19738 11.4613 8.99205 11.5168C8.78618 11.5723 8.63898 11.6056 8.55045 11.6168V12.4H7.44965ZM0.800049 7.99999C0.800049 6.99999 0.988849 6.06399 1.36645 5.19199C1.74458 4.31945 2.25845 3.55812 2.90805 2.90799C3.55818 2.25839 4.31952 1.74452 5.19205 1.36639C6.06405 0.988788 7.00005 0.799988 8.00005 0.799988C9.25552 0.799988 10.4083 1.09172 11.4584 1.67519C12.5086 2.25865 13.3558 3.03919 14 4.01679V1.99999H15.2V5.99999H11.2V4.79999H13.0832C12.5499 3.95572 11.839 3.27785 10.9504 2.76639C10.0614 2.25545 9.07792 1.99999 8.00005 1.99999C7.16698 1.99999 6.38645 2.15839 5.65845 2.47519C4.93045 2.79199 4.29712 3.21972 3.75845 3.75839C3.21978 4.29705 2.79205 4.93039 2.47525 5.65839C2.15845 6.38639 2.00005 7.16692 2.00005 7.99999H0.800049Z" fill="#1C1B1F"/>
</svg>
