<svg width="20" height="20" viewBox="0 0 20 20" fill="none" xmlns="http://www.w3.org/2000/svg">
<path d="M2.5 4C2.5 3.17157 3.17157 2.5 4 2.5H7C7.82843 2.5 8.5 3.17157 8.5 4V7C8.5 7.82843 7.82843 8.5 7 8.5H4C3.17157 8.5 2.5 7.82843 2.5 7V4Z" stroke="#1A2835" stroke-width="1.5"/>
<path d="M11.5 13C11.5 12.1716 12.1716 11.5 13 11.5H16C16.8284 11.5 17.5 12.1716 17.5 13V16C17.5 16.8284 16.8284 17.5 16 17.5H13C12.1716 17.5 11.5 16.8284 11.5 16V13Z" stroke="#1A2835" stroke-width="1.5"/>
<path d="M11.5 4C11.5 3.17157 12.1716 2.5 13 2.5H16C16.8284 2.5 17.5 3.17157 17.5 4V7C17.5 7.82843 16.8284 8.5 16 8.5H13C12.1716 8.5 11.5 7.82843 11.5 7V4Z" stroke="#1A2835" stroke-width="1.5"/>
<path d="M2.5 13C2.5 12.1716 3.17157 11.5 4 11.5H7C7.82843 11.5 8.5 12.1716 8.5 13V16C8.5 16.8284 7.82843 17.5 7 17.5H4C3.17157 17.5 2.5 16.8284 2.5 16V13Z" stroke="#1A2835" stroke-width="1.5"/>
</svg>
