<svg width="24" height="24" viewBox="0 0 24 24" fill="none" xmlns="http://www.w3.org/2000/svg">
<mask id="mask0_356_17702" style="mask-type:alpha" maskUnits="userSpaceOnUse" x="0" y="0" width="24" height="24">
<rect width="24" height="24" fill="#D9D9D9"/>
</mask>
<g mask="url(#mask0_356_17702)">
<path d="M8.40002 20.3748V18.5748H10.2V16.7748H4.20002C3.70002 16.7748 3.27522 16.6 2.92562 16.2504C2.57522 15.9 2.40002 15.4748 2.40002 14.9748V5.3748C2.40002 4.8748 2.57522 4.45 2.92562 4.1004C3.27522 3.75 3.70002 3.5748 4.20002 3.5748H19.8C20.3 3.5748 20.7248 3.75 21.0744 4.1004C21.4248 4.45 21.6 4.8748 21.6 5.3748V14.9748C21.6 15.4748 21.4248 15.9 21.0744 16.2504C20.7248 16.6 20.3 16.7748 19.8 16.7748H13.8V18.5748H15.6V20.3748H8.40002ZM4.20002 14.9748H19.8V5.3748H4.20002V14.9748Z" fill="white"/>
</g>
</svg>
