<svg width="18" height="16" viewBox="0 0 18 16" fill="none" xmlns="http://www.w3.org/2000/svg">
<path d="M15.2586 8.00016C15.2586 11.3593 12.4686 14.1043 8.99944 14.1043C5.53032 14.1043 2.74023 11.3593 2.74023 8.00016C2.74023 4.64104 5.53032 1.896 8.99944 1.896C12.4686 1.896 15.2586 4.64104 15.2586 8.00016Z" stroke="#FF4A3D" stroke-width="1.125"/>
<path fill-rule="evenodd" clip-rule="evenodd" d="M9.00053 4.6665C9.37728 4.6665 9.6827 4.96498 9.6827 5.33317L9.6827 8.33317C9.6827 8.70136 9.37728 8.99984 9.00053 8.99984C8.62378 8.99984 8.31836 8.70136 8.31836 8.33317L8.31836 5.33317C8.31836 4.96498 8.62378 4.6665 9.00053 4.6665Z" fill="#FF4A3D"/>
<path fill-rule="evenodd" clip-rule="evenodd" d="M9.00053 9.6665C9.37728 9.6665 9.6827 9.96498 9.6827 10.3332L9.6827 10.6665C9.6827 11.0347 9.37728 11.3332 9.00053 11.3332C8.62378 11.3332 8.31836 11.0347 8.31836 10.6665L8.31836 10.3332C8.31836 9.96498 8.62378 9.6665 9.00053 9.6665Z" fill="#FF4A3D"/>
</svg>
