<svg width="12" height="12" viewBox="0 0 12 12" fill="none" xmlns="http://www.w3.org/2000/svg">
<path d="M1.60015 11.6C1.26681 11.6 0.983613 11.4832 0.750546 11.2496C0.516946 11.0165 0.400146 10.7333 0.400146 10.4V7.59996H1.60015V10.4H10.4001V1.59996H1.60015V4.39996H0.400146V1.59996C0.400146 1.26663 0.516946 0.98343 0.750546 0.750363C0.983613 0.516763 1.26681 0.399963 1.60015 0.399963H10.4001C10.7335 0.399963 11.0167 0.516763 11.2497 0.750363C11.4833 0.98343 11.6001 1.26663 11.6001 1.59996V10.4C11.6001 10.7333 11.4833 11.0165 11.2497 11.2496C11.0167 11.4832 10.7335 11.6 10.4001 11.6H1.60015ZM5.20015 9.19996L4.35055 8.35036L6.10015 6.59996H0.400146V5.39996H6.10015L4.35055 3.64956L5.20015 2.79996L8.40015 5.99996L5.20015 9.19996Z" fill="#1C1B1F"/>
</svg>
