<svg width="14" height="10" viewBox="0 0 14 10" fill="none" xmlns="http://www.w3.org/2000/svg">
<path d="M0.599854 9.80001V8.26641C0.599854 7.97788 0.669187 7.71415 0.807854 7.47521C0.947054 7.23628 1.13879 7.04455 1.38305 6.90001C1.98305 6.54428 2.61932 6.27201 3.29185 6.08321C3.96385 5.89441 4.66652 5.80001 5.39985 5.80001C6.13319 5.80001 6.83585 5.89441 7.50785 6.08321C8.18039 6.27201 8.81665 6.54428 9.41665 6.90001C9.66092 7.04455 9.85265 7.23628 9.99185 7.47521C10.1305 7.71415 10.1999 7.97788 10.1999 8.26641V9.80001H0.599854ZM11.3999 9.80001V8.26641C11.3999 7.79975 11.2916 7.36641 11.0751 6.96641C10.8585 6.56641 10.5668 6.23868 10.1999 5.98321C10.6329 6.07228 11.0524 6.19175 11.4583 6.34161C11.8636 6.49148 12.2497 6.67761 12.6167 6.90001C12.8609 7.04455 13.0527 7.23628 13.1919 7.47521C13.3305 7.71415 13.3999 7.97788 13.3999 8.26641V9.80001H11.3999ZM5.39985 5.00001C4.73319 5.00001 4.16652 4.76668 3.69985 4.30001C3.23319 3.83335 2.99985 3.26668 2.99985 2.60001C2.99985 1.93335 3.23319 1.36668 3.69985 0.900012C4.16652 0.433346 4.73319 0.200012 5.39985 0.200012C6.06652 0.200012 6.63319 0.433346 7.09985 0.900012C7.56652 1.36668 7.79985 1.93335 7.79985 2.60001C7.79985 3.26668 7.56652 3.83335 7.09985 4.30001C6.63319 4.76668 6.06652 5.00001 5.39985 5.00001ZM10.9999 2.60001C10.9999 3.26668 10.7665 3.83335 10.2999 4.30001C9.83319 4.76668 9.26652 5.00001 8.59985 5.00001C8.51079 5.00001 8.42759 4.99734 8.35025 4.99201C8.27239 4.98615 8.18892 4.97228 8.09985 4.95041C8.37772 4.62775 8.59719 4.26935 8.75825 3.87521C8.91932 3.48055 8.99985 3.05548 8.99985 2.60001C8.99985 2.14455 8.91932 1.71948 8.75825 1.32481C8.59719 0.930679 8.37772 0.572279 8.09985 0.249612C8.18892 0.227745 8.27239 0.213879 8.35025 0.208012C8.42759 0.202679 8.51079 0.200012 8.59985 0.200012C9.26652 0.200012 9.83319 0.433346 10.2999 0.900012C10.7665 1.36668 10.9999 1.93335 10.9999 2.60001ZM1.79985 8.60001H8.99985V8.26641C8.99985 8.19975 8.98332 8.13601 8.95025 8.07521C8.91665 8.01388 8.87212 7.96668 8.81665 7.93361C8.29452 7.63335 7.74439 7.40268 7.16625 7.24161C6.58865 7.08054 5.99985 7.00001 5.39985 7.00001C4.79985 7.00001 4.21105 7.07788 3.63345 7.23361C3.05532 7.38881 2.50519 7.62215 1.98305 7.93361C1.92759 7.96668 1.88305 8.01095 1.84945 8.06641C1.81639 8.12241 1.79985 8.18908 1.79985 8.26641V8.60001ZM5.39985 3.80001C5.73319 3.80001 6.01639 3.68321 6.24945 3.44961C6.48305 3.21655 6.59985 2.93335 6.59985 2.60001C6.59985 2.26668 6.48305 1.98348 6.24945 1.75041C6.01639 1.51681 5.73319 1.40001 5.39985 1.40001C5.06652 1.40001 4.78332 1.51681 4.55025 1.75041C4.31665 1.98348 4.19985 2.26668 4.19985 2.60001C4.19985 2.93335 4.31665 3.21655 4.55025 3.44961C4.78332 3.68321 5.06652 3.80001 5.39985 3.80001Z" fill="#1C1B1F"/>
</svg>
