<svg width="16" height="10" viewBox="0 0 16 10" fill="none" xmlns="http://www.w3.org/2000/svg">
<path d="M7.5 4.95041C7.78907 4.61655 8.0112 4.24961 8.1664 3.84961C8.32213 3.44961 8.4 3.03308 8.4 2.60001C8.4 2.17761 8.32213 1.76641 8.1664 1.36641C8.0112 0.966412 7.78907 0.594145 7.5 0.249612C7.58907 0.227745 7.67253 0.213879 7.7504 0.208012C7.82773 0.202679 7.91093 0.200012 8 0.200012C8.66667 0.200012 9.23333 0.433346 9.7 0.900012C10.1667 1.36668 10.4 1.93335 10.4 2.60001C10.4 3.26668 10.1667 3.83335 9.7 4.30001C9.23333 4.76668 8.66667 5.00001 8 5.00001C7.91093 5.00001 7.8248 4.99734 7.7416 4.99201C7.6584 4.98615 7.57787 4.97228 7.5 4.95041ZM10.8 9.80001V8.26641C10.8 7.81095 10.6944 7.38615 10.4832 6.99201C10.272 6.59734 9.9776 6.26108 9.6 5.98321C10.3557 6.16081 11.0779 6.40534 11.7664 6.71681C12.4555 7.02775 12.8 7.54428 12.8 8.26641V9.80001H10.8ZM13 5.80001V4.40001H11.6V3.20001H13V1.80001H14.2V3.20001H15.6V4.40001H14.2V5.80001H13ZM4.8 5.00001C4.13333 5.00001 3.56667 4.76668 3.1 4.30001C2.63333 3.83335 2.4 3.26668 2.4 2.60001C2.4 1.93335 2.63333 1.36668 3.1 0.900012C3.56667 0.433346 4.13333 0.200012 4.8 0.200012C5.46667 0.200012 6.03333 0.433346 6.5 0.900012C6.96667 1.36668 7.2 1.93335 7.2 2.60001C7.2 3.26668 6.96667 3.83335 6.5 4.30001C6.03333 4.76668 5.46667 5.00001 4.8 5.00001ZM0 9.80001V8.26641C0 7.98855 0.0693333 7.73041 0.208 7.49201C0.3472 7.25308 0.538933 7.05575 0.7832 6.90001C1.3832 6.52241 2.0248 6.24455 2.708 6.06641C3.39173 5.88881 4.08907 5.80001 4.8 5.80001C5.49973 5.80001 6.18853 5.89441 6.8664 6.08321C7.54427 6.27201 8.1944 6.54428 8.8168 6.90001C9.04987 7.05575 9.23867 7.25308 9.3832 7.49201C9.52773 7.73041 9.6 7.98855 9.6 8.26641V9.80001H0ZM4.8 3.80001C5.12213 3.80001 5.40267 3.68321 5.6416 3.44961C5.88053 3.21655 6 2.93335 6 2.60001C6 2.27788 5.88053 1.99735 5.6416 1.75841C5.40267 1.51948 5.12213 1.40001 4.8 1.40001C4.46667 1.40001 4.18347 1.51948 3.9504 1.75841C3.7168 1.99735 3.6 2.27788 3.6 2.60001C3.6 2.93335 3.7168 3.21655 3.9504 3.44961C4.18347 3.68321 4.46667 3.80001 4.8 3.80001ZM1.2 8.60001H8.4V8.26641C8.4 8.19975 8.38347 8.13868 8.3504 8.08321C8.3168 8.02775 8.27227 7.97788 8.2168 7.93361C7.68347 7.64455 7.13067 7.41655 6.5584 7.24961C5.98613 7.08321 5.4 7.00001 4.8 7.00001C4.1888 7.00001 3.59707 7.08054 3.0248 7.24161C2.45253 7.40268 1.90533 7.63335 1.3832 7.93361C1.32773 7.97788 1.2832 8.02775 1.2496 8.08321C1.21653 8.13868 1.2 8.19975 1.2 8.26641V8.60001Z" fill="#1C1B1F"/>
</svg>
