<?xml version="1.0" encoding="UTF-8"?>
<svg id="Layer_1" data-name="Layer 1" xmlns="http://www.w3.org/2000/svg" xmlns:xlink="http://www.w3.org/1999/xlink" viewBox="0 0 475.66 107.02">
  <defs>
    <style>
      .cls-1 {
        fill: url(#linear-gradient);
      }

      .cls-2 {
        fill: #00c191;
      }

      .cls-3 {
        fill: #5e8899;
      }

      .cls-4 {
        fill: #333;
        font-family: Montserrat-Bold, Montserrat;
        font-size: 20.47px;
        font-weight: 700;
        isolation: isolate;
      }

      .cls-5 {
        letter-spacing: -.03em;
      }
    </style>
    <linearGradient id="linear-gradient" x1="303.52" y1="192.17" x2="379.48" y2="192.17" gradientTransform="translate(97.59 300.93) rotate(-6.86) scale(1 -1)" gradientUnits="userSpaceOnUse">
      <stop offset="0" stop-color="#00c191"/>
      <stop offset=".15" stop-color="#0ec39b"/>
      <stop offset=".43" stop-color="#34c7b4"/>
      <stop offset=".82" stop-color="#71cede"/>
      <stop offset="1" stop-color="#91d2f3"/>
    </linearGradient>
  </defs>
  <path class="cls-2" d="m79.16,55.3v.1c0,2.8-.6,5.6-1.8,8.1-3.2,6.9-11,11.9-18.9,12.2h-.6c-2.1,0-4.2-.3-6.2-.9-9.2-2.8-13-11.3-13-11.3-.5-1.2-.9-2.4-1.2-3.6-1.4-7.3,3.3-13.3,4.2-14.5,1.1-1.4,2.4-2.7,3.8-3.8l2.6,3.6-2.1,2.2c-.6.7-4.4,5.4-3.2,11.5,1.4,7.3,8.7,10.4,9.9,10.8.3.1.6.2.6.2,1.6.5,3.3.7,5.1.7,6-.2,11.8-3.9,14.2-9.1.9-2,1.3-4.1,1.4-6.2,0-1.5-.2-3-.7-4.5-.2-.7-.6-1.3-.9-2-1.7-3-10.8-14-13.3-17.3l-2.9,4.2,7.7,9.3c.6.8,1.1,1.6,1.7,2.4,1.2,1.8,2.1,3.2,2.6,5.1.5,1.7.6,3.6.3,5.3-.9,3.7-4.8,7.6-9.9,7.8-1.4,0-2.8-.2-4.2-.7s-2.5-1.3-3.5-2.3c-.8-.7-3.9-3.5-3.5-7.7.3-3.5,2.9-5.7,3.5-6.1l2.8,3.6c-.9.9-1.4,2-1.5,3.2-.1,2.4,1.7,3.9,2,4.2.7.5,1.5.9,2.4,1.1s1.8.2,2.6,0c1.2-.3,2.2-1,3-2s1.2-2.1,1.2-3.3c0-1-.3-2-.8-2.9l-12.9-16.7.6-.8c2.5-3.4,4.9-6.8,7.4-10.2l1.1-1.6,1.2,1.5c.7.9,1.5,1.8,2.2,2.7,3.7,4.7,11.1,13.3,14.3,18.3v.1c1.8,2.7,2.7,6,2.7,9.3Z"/>
  <path class="cls-2" d="m128.36,34.2h6.2v33.6h-6.2v-33.6Zm-17.4,33.6h-6.2v-33.6h6.2v33.6Zm17.9-14.4h-18.4v-5.3h18.4v5.3Zm26.2,14.7c-2.9,0-5.3-.6-7.5-1.7-2.1-1.2-3.8-2.7-4.9-4.7-1.2-2-1.7-4.2-1.7-6.8s.6-4.8,1.7-6.8c1.2-2,2.7-3.5,4.7-4.7,2-1.1,4.3-1.7,6.9-1.7s4.7.5,6.7,1.6,3.5,2.6,4.6,4.6,1.7,4.3,1.7,7v1.8h-21.4v-4h18.2l-2.4,1.2c0-1.5-.3-2.8-.9-3.9-.6-1.1-1.5-2-2.6-2.6s-2.4-1-3.8-1c-1.5,0-2.8.3-3.9,1-1.1.6-2,1.5-2.6,2.7-.6,1.1-.9,2.5-.9,4v1c0,1.5.4,2.9,1.1,4.1s1.7,2.1,3,2.7c1.3.6,2.8,1,4.4,1,1.4,0,2.7-.2,3.9-.7,1.2-.4,2.2-1.2,3.1-2.1l3.2,3.7c-1.2,1.3-2.6,2.4-4.4,3.1-2,.9-3.9,1.2-6.2,1.2Zm32.9-.3v-5.2l-.3-1.1v-9.1c0-1.8-.5-3.1-1.6-4.1s-2.7-1.5-4.8-1.5c-1.4,0-2.9.2-4.3.7-1.4.4-2.5,1.1-3.5,1.9l-2.4-4.4c1.4-1.1,3-1.8,4.9-2.4,1.9-.5,3.9-.8,6-.8,3.7,0,6.6.9,8.6,2.7,2.1,1.8,3.1,4.5,3.1,8.2v15h-5.7v.1Zm-8,.3c-1.9,0-3.6-.3-5-1s-2.6-1.6-3.4-2.7c-.8-1.2-1.2-2.5-1.2-4,0-1.4.3-2.7,1-3.9s1.8-2.1,3.4-2.7c1.6-.7,3.7-1,6.2-1h7.4v4h-7c-2.1,0-3.4.3-4.1,1-.7.6-1.1,1.4-1.1,2.4,0,1.1.4,2,1.3,2.6.9.6,2.1,1,3.6,1s2.8-.3,3.9-1c1.2-.7,2-1.7,2.5-3l1,3.6c-.6,1.5-1.6,2.7-3.1,3.5-1.3.8-3.2,1.2-5.4,1.2Zm31.1,0c-2.8,0-5-.7-6.5-2.2s-2.3-3.6-2.3-6.5v-23h6v22.9c0,1.2.3,2.2.9,2.8.6.7,1.5,1,2.6,1,1.3,0,2.5-.4,3.4-1.1l1.7,4.3c-.7.6-1.6,1-2.6,1.3-1.1.4-2.1.5-3.2.5Zm-13.1-21v-4.8h17.1v4.8h-17.1Zm56.2-5.3c2.1,0,3.9.4,5.4,1.2,1.6.8,2.9,2,3.7,3.7.9,1.6,1.3,3.7,1.3,6.3v14.7h-6v-13.9c0-2.3-.5-4-1.5-5.1s-2.4-1.7-4.3-1.7c-1.3,0-2.5.3-3.5.9s-1.8,1.4-2.4,2.5c-.5,1.1-.8,2.5-.8,4.3v13h-6v-13.9c0-2.3-.5-4-1.5-5.1s-2.4-1.7-4.3-1.7c-1.3,0-2.5.3-3.5.9s-1.8,1.4-2.4,2.5c-.5,1.1-.8,2.5-.8,4.3v13h-6v-25.7h5.7v6.8l-1-2c.9-1.7,2.1-2.9,3.7-3.8,1.7-.9,3.6-1.3,5.7-1.3,2.4,0,4.5.6,6.2,1.8,1.8,1.2,3,3,3.6,5.4l-2.4-.8c.8-1.9,2.2-3.5,4.1-4.6,1.9-1.1,4.4-1.7,7-1.7Zm34,26v-5.2l-.3-1.1v-9.1c0-1.8-.5-3.1-1.6-4.1s-2.7-1.5-4.8-1.5c-1.4,0-2.9.2-4.3.7-1.4.4-2.5,1.1-3.5,1.9l-2.4-4.4c1.4-1.1,3-1.8,4.9-2.4,1.9-.5,3.9-.8,6-.8,3.7,0,6.6.9,8.6,2.7,2.1,1.8,3.1,4.5,3.1,8.2v15h-5.7v.1h0Zm-8.1.3c-1.9,0-3.6-.3-5-1s-2.6-1.6-3.4-2.7c-.8-1.2-1.2-2.5-1.2-4,0-1.4.3-2.7,1-3.9.7-1.2,1.8-2.1,3.4-2.7,1.6-.7,3.7-1,6.2-1h7.4v4h-7c-2.1,0-3.4.3-4.1,1-.7.6-1.1,1.4-1.1,2.4,0,1.1.4,2,1.3,2.6s2.1,1,3.6,1,2.8-.3,3.9-1c1.2-.7,2-1.7,2.5-3l1,3.6c-.6,1.5-1.6,2.7-3.1,3.5-1.2.8-3.1,1.2-5.4,1.2Zm35.7,0c-2.1,0-4-.5-5.7-1.4-1.7-1-3.1-2.4-4.1-4.3-1-2-1.5-4.4-1.5-7.4s.5-5.5,1.4-7.4c1-1.9,2.3-3.3,4-4.3s3.6-1.4,5.8-1.4c2.5,0,4.8.5,6.7,1.6,2,1.1,3.5,2.6,4.6,4.6,1.2,2,1.7,4.3,1.7,6.9s-.6,5-1.7,7-2.7,3.5-4.6,4.6c-1.9,1-4.1,1.5-6.6,1.5Zm-14.2,9v-35h5.7v6.1l-.2,6.8.5,6.8v15.3h-6Zm13.5-14.1c1.4,0,2.7-.3,3.8-1,1.2-.6,2.1-1.6,2.7-2.8.7-1.2,1-2.6,1-4.3s-.3-3.1-1-4.3c-.7-1.2-1.6-2.1-2.7-2.8-1.1-.6-2.4-1-3.8-1s-2.7.3-3.9,1c-1.2.6-2.1,1.6-2.7,2.8-.7,1.2-1,2.6-1,4.3,0,1.6.3,3.1,1,4.3.7,1.2,1.6,2.1,2.7,2.8,1.2.7,2.5,1,3.9,1Zm20.9,5.1c-1.1,0-2-.4-2.8-1.1-.8-.8-1.2-1.7-1.2-2.9s.4-2.2,1.2-2.9c.8-.7,1.7-1.1,2.8-1.1s2,.4,2.8,1.1,1.2,1.7,1.2,2.9-.4,2.1-1.2,2.9c-.8.8-1.7,1.1-2.8,1.1Zm21.2,0c-2.7,0-5.1-.6-7.2-1.7-2.1-1.2-3.7-2.7-4.9-4.7-1.2-2-1.8-4.2-1.8-6.8s.6-4.8,1.8-6.8c1.2-2,2.8-3.5,4.9-4.7,2.1-1.1,4.5-1.7,7.2-1.7,2.5,0,4.7.5,6.6,1.5s3.4,2.5,4.4,4.4l-4.6,2.7c-.8-1.2-1.7-2.1-2.8-2.7-1.1-.6-2.3-.9-3.6-.9-1.5,0-2.8.3-4,1-1.2.6-2.1,1.6-2.8,2.8s-1,2.6-1,4.3.3,3.1,1,4.3c.7,1.2,1.6,2.1,2.8,2.7,1.2.6,2.5,1,4,1,1.3,0,2.5-.3,3.6-.9,1.1-.6,2.1-1.5,2.8-2.7l4.6,2.7c-1,1.9-2.5,3.4-4.4,4.5-2,1.2-4.1,1.7-6.6,1.7Zm27.3,0c-2.6,0-5-.6-7-1.7-2.1-1.2-3.7-2.7-4.9-4.7-1.2-2-1.8-4.2-1.8-6.8s.6-4.8,1.8-6.8c1.2-2,2.8-3.5,4.9-4.7,2.1-1.1,4.4-1.7,7-1.7s5,.6,7.1,1.7,3.7,2.7,4.9,4.6c1.2,2,1.8,4.2,1.8,6.8s-.6,4.8-1.8,6.8c-1.2,2-2.8,3.6-4.9,4.7-2.1,1.3-4.5,1.8-7.1,1.8Zm0-5.1c1.5,0,2.8-.3,3.9-1,1.2-.6,2.1-1.6,2.7-2.8.7-1.2,1-2.6,1-4.3s-.3-3.1-1-4.3c-.6-1.2-1.5-2.1-2.7-2.8-1.2-.6-2.5-1-3.9-1-1.5,0-2.8.3-3.9,1-1.1.6-2,1.6-2.7,2.8-.7,1.2-1,2.6-1,4.3,0,1.6.3,3.1,1,4.3.7,1.2,1.6,2.1,2.7,2.8,1.1.7,2.4,1,3.9,1Zm51.8-21.2c2.1,0,3.9.4,5.4,1.2,1.6.8,2.9,2,3.7,3.7.9,1.6,1.3,3.7,1.3,6.3v14.7h-6v-13.9c0-2.3-.5-4-1.5-5.1s-2.4-1.7-4.3-1.7c-1.3,0-2.5.3-3.5.9s-1.8,1.4-2.4,2.5c-.5,1.1-.8,2.5-.8,4.3v13h-6v-13.9c0-2.3-.5-4-1.5-5.1s-2.4-1.7-4.3-1.7c-1.3,0-2.5.3-3.5.9s-1.8,1.4-2.4,2.5c-.5,1.1-.8,2.5-.8,4.3v13h-6v-25.7h5.7v6.8l-1-2c.9-1.7,2.1-2.9,3.7-3.8,1.7-.9,3.6-1.3,5.7-1.3,2.4,0,4.5.6,6.2,1.8,1.8,1.2,3,3,3.6,5.4l-2.4-.8c.8-1.9,2.2-3.5,4.1-4.6,2.2-1.1,4.4-1.7,7-1.7Z"/>
  <path class="cls-1" d="m450.06,53.5l-.2-2-.1-.9s.1,2.1-6.7,2.9l-6.8.8-47,5.7s-14.3,1.7-11.5,28l60.2-7.2s14.3-2.5,12.1-27.3Z"/>
  <text class="cls-4" transform="translate(385.28 80.74) rotate(-6.86)"><tspan x="0" y="0">BE</tspan><tspan class="cls-5" x="29.4" y="0">T</tspan><tspan x="41.34" y="0">A</tspan></text>
  <path class="cls-3" d="m449.76,50.8s.2-1.7-.8-2.5c-.9-.8-3.1-.9-3.1-.9l.7,5.4c.1.1,3-.6,3.2-2Z"/>
</svg>