<svg version="1.2" xmlns="http://www.w3.org/2000/svg" viewBox="0 0 221 42" width="221" height="42">
	<title>heatmap-logo (1)-svg</title>
	<style>
		.s0 { fill: #00c191 } 
	</style>
	<path id="Layer" class="s0" d="m31.5 24.8v0.1c0 1.3-0.3 2.7-0.9 4-1.6 3.5-5.5 6-9.5 6.1q-0.1 0-0.3 0-1.6 0-3.1-0.5c-4.6-1.4-6.5-5.6-6.5-5.6q-0.4-0.9-0.6-1.8c-0.7-3.6 1.7-6.7 2.1-7.3q0.9-1 1.9-1.9l1.3 1.8-1 1.1c-0.3 0.4-2.2 2.7-1.6 5.7 0.7 3.7 4.3 5.3 4.9 5.5 0.2 0 0.3 0.1 0.3 0.1q1.3 0.3 2.6 0.3c2.9-0.1 5.9-2 7.1-4.6 0.4-0.9 0.6-2 0.6-3q0.1-1.2-0.3-2.3-0.2-0.5-0.5-1c-0.8-1.4-5.4-6.9-6.6-8.6l-1.5 2.1 3.9 4.6q0.4 0.6 0.8 1.2c0.6 0.9 1.1 1.6 1.3 2.6 0.3 0.9 0.4 1.8 0.2 2.7-0.5 1.8-2.4 3.8-5 3.8q-1.1 0.1-2.1-0.3-1-0.4-1.7-1.2c-0.4-0.3-1.9-1.7-1.7-3.8 0.1-1.8 1.4-2.9 1.7-3.1l1.4 1.8c-0.4 0.4-0.7 1-0.7 1.6-0.1 1.2 0.8 1.9 1 2.1q0.5 0.4 1.2 0.5 0.7 0.1 1.3 0c0.6-0.2 1.1-0.5 1.5-1 0.4-0.5 0.6-1.1 0.6-1.7q0-0.8-0.4-1.4l-6.4-8.4 0.3-0.4q1.8-2.5 3.7-5.1l0.5-0.8 0.7 0.8q0.5 0.7 1 1.3c1.9 2.4 5.6 6.7 7.2 9.2 0.8 1.5 1.3 3.1 1.3 4.8z"/>
	<path id="Layer" fill-rule="evenodd" class="s0" d="m56.1 14.2h3.1v16.8h-3.1v-7.2h-8.7v7.2h-3.1v-16.8h3.1v6.9h8.7zm13.3 17q-2.1 0-3.7-0.8-1.6-0.9-2.5-2.4-0.9-1.5-0.9-3.4 0-1.9 0.9-3.4 0.9-1.4 2.3-2.3 1.6-0.8 3.5-0.8 1.8 0 3.3 0.8 1.5 0.8 2.3 2.3 0.9 1.5 0.9 3.5 0 0.2-0.1 0.4 0 0.3 0 0.5h-10.1q0.2 0.7 0.5 1.2 0.5 0.9 1.5 1.4 1 0.5 2.2 0.5 1.1 0 1.9-0.4 0.9-0.3 1.6-1l1.6 1.8q-0.9 1-2.2 1.6-1.3 0.5-3 0.5zm-4.1-5.6q0-0.4 0-0.8v-0.5q0-0.4 0-0.7h-0.6v2zm7.3-2q0 0.3 0 0.6l1.2-0.6zm-0.4-1.3q-0.5-0.9-1.3-1.3-0.9-0.5-1.9-0.5-1.1 0-2 0.5-0.8 0.4-1.3 1.3-0.3 0.6-0.4 1.3h7.3q-0.1-0.7-0.4-1.3zm13.7 8.7v-1.5q-0.5 0.7-1.3 1.1-1.1 0.6-2.8 0.6-1.4 0-2.5-0.5-1.1-0.5-1.7-1.3-0.5-0.9-0.5-2 0-1.1 0.5-2 0.5-0.8 1.7-1.3 1.1-0.6 3.1-0.6h3.3v-0.1q0-1.4-0.8-2.1-0.8-0.7-2.4-0.7-1.1 0-2.1 0.3-1.1 0.3-1.8 0.9l-1.2-2.1q1.1-0.8 2.5-1.2 1.4-0.4 3-0.4 2.7 0 4.3 1.3 1.5 1.3 1.5 4.1v7.5zm-3.3-5.5q-1.5 0-2 0.5-0.6 0.5-0.6 1.2 0 0.9 0.7 1.3 0.6 0.5 1.8 0.5 1.1 0 2-0.5 0.8-0.5 1.2-1.5v-1.5zm14.8 5.7q-2.1 0-3.3-1.1-1.1-1.1-1.1-3.2v-6.2h-2.1v-2.4h2.1v-2.9h3v2.9h3.4v2.4h-3.4v6.1q0 0.9 0.4 1.4 0.5 0.5 1.4 0.5 1 0 1.6-0.5l0.9 2.1q-0.6 0.5-1.3 0.7-0.8 0.2-1.6 0.2zm21.5-13.1q1.6 0 2.7 0.6 1.2 0.6 1.9 1.8 0.7 1.2 0.7 3.2v7.3h-3v-6.9q0-1.7-0.8-2.6-0.7-0.8-2.1-0.8-1 0-1.8 0.4-0.7 0.5-1.1 1.3-0.4 0.8-0.4 2.1v6.5h-3v-6.9q0-1.7-0.8-2.6-0.7-0.8-2.1-0.8-1 0-1.8 0.4-0.7 0.5-1.1 1.3-0.5 0.8-0.5 2.1v6.5h-3v-12.8h2.9v1.6q0.6-0.6 1.4-1.1 1.2-0.6 2.8-0.6 1.8 0 3.1 0.9 0.8 0.5 1.2 1.2 0.6-0.7 1.5-1.3 1.4-0.8 3.3-0.8zm-13.3 1.7q-0.3 0.4-0.5 0.8l0.5 1zm8.5 0.4q-0.3 0.5-0.6 1l1.2 0.4q-0.2-0.8-0.6-1.4zm21.8 10.8v-1.5q-0.4 0.6-1.2 1.1-1.1 0.6-2.8 0.6-1.5 0-2.5-0.5-1.1-0.5-1.7-1.4-0.6-0.8-0.6-2 0-1 0.5-1.9 0.5-0.9 1.7-1.4 1.2-0.5 3.1-0.5h3.3v-0.2q0-1.3-0.8-2-0.7-0.7-2.4-0.7-1 0-2.1 0.3-1 0.3-1.7 0.9l-1.2-2.2q1-0.7 2.4-1.1 1.5-0.4 3-0.4 2.8 0 4.3 1.3 1.5 1.3 1.5 4.1v7.5zm-3.2-5.5q-1.6 0-2.1 0.5-0.5 0.5-0.5 1.2 0 0.8 0.6 1.3 0.7 0.5 1.8 0.5 1.1 0 2-0.5 0.9-0.5 1.3-1.5v-1.5zm17 5.7q-1.5 0-2.8-0.7-0.7-0.4-1.3-1v6.2h-3v-17.5h2.9v1.7q0.5-0.7 1.3-1.1 1.3-0.7 2.9-0.7 1.9 0 3.4 0.8 1.4 0.8 2.3 2.3 0.8 1.4 0.8 3.4 0 2-0.8 3.5-0.9 1.5-2.3 2.3-1.5 0.8-3.4 0.8zm-0.3-2.6q1.1 0 1.9-0.5 0.9-0.4 1.4-1.4 0.5-0.9 0.5-2.1 0-1.2-0.5-2.1-0.5-0.9-1.4-1.4-0.8-0.5-1.9-0.5-1.1 0-2 0.5-0.8 0.5-1.3 1.4-0.5 0.9-0.5 2.1 0 1.2 0.5 2.1 0.5 1 1.3 1.4 0.9 0.5 2 0.5zm10.4 2.6q-0.8 0-1.4-0.6-0.6-0.5-0.6-1.4 0-0.9 0.6-1.4 0.6-0.6 1.4-0.6 0.8 0 1.4 0.6 0.6 0.5 0.6 1.4 0 0.9-0.6 1.4-0.6 0.6-1.4 0.6zm10.6 0q-2 0-3.6-0.9-1.6-0.8-2.5-2.3-0.9-1.5-0.9-3.4 0-1.9 0.9-3.4 0.9-1.5 2.5-2.3 1.6-0.8 3.6-0.8 1.9 0 3.3 0.7 1.4 0.8 2.2 2.2l-2.3 1.4q-0.6-0.9-1.5-1.4-0.8-0.4-1.7-0.4-1.1 0-2 0.5-0.9 0.5-1.4 1.4-0.5 0.9-0.5 2.1 0 1.3 0.5 2.2 0.5 0.9 1.4 1.3 0.9 0.5 2 0.5 0.9 0 1.7-0.4 0.9-0.4 1.5-1.4l2.3 1.4q-0.8 1.4-2.2 2.2-1.4 0.8-3.3 0.8zm13.6 0q-1.9 0-3.5-0.9-1.5-0.8-2.4-2.3-0.9-1.5-0.9-3.4 0-1.9 0.9-3.4 0.9-1.5 2.4-2.3 1.6-0.8 3.5-0.8 2 0 3.6 0.8 1.5 0.8 2.4 2.3 0.9 1.5 0.9 3.4 0 1.9-0.9 3.4-0.9 1.5-2.4 2.3-1.6 0.9-3.6 0.9zm0-2.6q1.1 0 2-0.5 0.9-0.4 1.3-1.4 0.5-0.9 0.5-2.1 0-1.2-0.5-2.1-0.4-0.9-1.3-1.4-0.9-0.5-2-0.5-1.1 0-1.9 0.5-0.9 0.5-1.4 1.4-0.5 0.9-0.5 2.1 0 1.2 0.5 2.1 0.5 1 1.4 1.4 0.8 0.5 1.9 0.5zm25.9-10.5q1.5 0 2.7 0.6 1.2 0.6 1.9 1.8 0.7 1.2 0.7 3.2v7.3h-3v-6.9q0-1.7-0.8-2.6-0.7-0.8-2.1-0.8-1 0-1.8 0.4-0.7 0.4-1.1 1.3-0.5 0.8-0.5 2.1v6.5h-3v-6.9q0-1.7-0.7-2.6-0.7-0.8-2.1-0.8-1 0-1.8 0.4-0.7 0.4-1.2 1.3-0.4 0.8-0.4 2.1v6.5h-3v-12.8h2.9v1.6q0.5-0.7 1.4-1.1 1.2-0.6 2.8-0.6 1.8 0 3.1 0.8 0.7 0.5 1.2 1.3 0.6-0.7 1.5-1.3 1.4-0.8 3.3-0.8zm-13.3 1.7q-0.3 0.4-0.5 0.8l0.5 1zm8.5 0.4q-0.4 0.5-0.6 1l1.2 0.4q-0.2-0.8-0.6-1.4z"/>
</svg>