<svg width="12" height="15" viewBox="0 0 12 15" fill="none" xmlns="http://www.w3.org/2000/svg">
<path d="M1.60015 14.4C1.26681 14.4 0.983613 14.2832 0.750546 14.0496C0.516946 13.8165 0.400146 13.5333 0.400146 13.2V5.19999C0.400146 4.86665 0.516946 4.58345 0.750546 4.35039C0.983613 4.11679 1.26681 3.99999 1.60015 3.99999H2.80015C2.80015 3.11092 3.11135 2.35545 3.73375 1.73359C4.35561 1.11119 5.11108 0.799988 6.00015 0.799988C6.88921 0.799988 7.64468 1.11119 8.26655 1.73359C8.88895 2.35545 9.20015 3.11092 9.20015 3.99999H10.4001C10.7335 3.99999 11.0167 4.11679 11.2497 4.35039C11.4833 4.58345 11.6001 4.86665 11.6001 5.19999V13.2C11.6001 13.5333 11.4833 13.8165 11.2497 14.0496C11.0167 14.2832 10.7335 14.4 10.4001 14.4H1.60015ZM1.60015 13.2H10.4001V5.19999H1.60015V13.2ZM6.00015 9.59999C6.88921 9.59999 7.64468 9.28879 8.26655 8.66639C8.88895 8.04452 9.20015 7.28905 9.20015 6.39999H8.00015C8.00015 6.95572 7.80575 7.42799 7.41695 7.81679C7.02815 8.20559 6.55588 8.39999 6.00015 8.39999C5.44441 8.39999 4.97215 8.20559 4.58335 7.81679C4.19455 7.42799 4.00015 6.95572 4.00015 6.39999H2.80015C2.80015 7.28905 3.11135 8.04452 3.73375 8.66639C4.35561 9.28879 5.11108 9.59999 6.00015 9.59999ZM4.00015 3.99999H8.00015C8.00015 3.44425 7.80575 2.97199 7.41695 2.58319C7.02815 2.19439 6.55588 1.99999 6.00015 1.99999C5.44441 1.99999 4.97215 2.19439 4.58335 2.58319C4.19455 2.97199 4.00015 3.44425 4.00015 3.99999Z" fill="#1C1B1F"/>
</svg>
