<svg width="30" height="24" viewBox="0 0 30 24" fill="none" xmlns="http://www.w3.org/2000/svg">
<path d="M16.5435 6.49997C16.5435 7.3284 15.7464 7.99997 14.763 7.99997C13.7796 7.99997 12.9824 7.3284 12.9824 6.49997C12.9824 5.67155 13.7796 4.99997 14.763 4.99997C15.7464 4.99997 16.5435 5.67155 16.5435 6.49997Z" fill="#1A2128"/>
<path d="M16.5435 12C16.5435 12.8284 15.7464 13.5 14.763 13.5C13.7796 13.5 12.9824 12.8284 12.9824 12C12.9824 11.1716 13.7796 10.5 14.763 10.5C15.7464 10.5 16.5435 11.1716 16.5435 12Z" fill="#1A2128"/>
<path d="M16.5435 17.5C16.5435 18.3284 15.7464 19 14.763 19C13.7796 19 12.9824 18.3284 12.9824 17.5C12.9824 16.6716 13.7796 16 14.763 16C15.7464 16 16.5435 16.6716 16.5435 17.5Z" fill="#1A2128"/>
</svg>
