<svg width="24" height="24" viewBox="0 0 24 24" fill="none" xmlns="http://www.w3.org/2000/svg">
<path d="M8 12C8 12.8284 7.32843 13.5 6.5 13.5C5.67157 13.5 5 12.8284 5 12C5 11.1716 5.67157 10.5 6.5 10.5C7.32843 10.5 8 11.1716 8 12Z" fill="#1A2835"/>
<path d="M13.5 12C13.5 12.8284 12.8284 13.5 12 13.5C11.1716 13.5 10.5 12.8284 10.5 12C10.5 11.1716 11.1716 10.5 12 10.5C12.8284 10.5 13.5 11.1716 13.5 12Z" fill="#1A2835"/>
<path d="M19 12.0001C19 12.8285 18.3284 13.5001 17.5 13.5001C16.6716 13.5001 16 12.8285 16 12.0001C16 11.1716 16.6716 10.5001 17.5 10.5001C18.3284 10.5001 19 11.1716 19 12.0001Z" fill="#1A2835"/>
</svg>
