<svg width="13" height="12" viewBox="0 0 13 12" fill="none" xmlns="http://www.w3.org/2000/svg">
<g clip-path="url(#clip0_7487_348)">
<path d="M8.6709 3.99994H5.6709C5.40568 3.99994 5.15133 4.1053 4.96379 4.29283C4.77626 4.48037 4.6709 4.73472 4.6709 4.99994C4.6709 5.26516 4.77626 5.51951 4.96379 5.70705C5.15133 5.89458 5.40568 5.99994 5.6709 5.99994H7.6709C7.93611 5.99994 8.19047 6.1053 8.37801 6.29283C8.56554 6.48037 8.6709 6.73472 8.6709 6.99994C8.6709 7.26516 8.56554 7.51951 8.37801 7.70705C8.19047 7.89458 7.93611 7.99994 7.6709 7.99994H4.6709" stroke="#34404B" stroke-linecap="round" stroke-linejoin="round"/>
<path d="M6.66895 9V3" stroke="#34404B" stroke-linecap="round" stroke-linejoin="round"/>
<mask id="path-3-inside-1_7487_348" fill="white">
<path d="M9.84473 2L10.5518 2.70711L3.70686 9.55208L2.99976 8.84497L9.84473 2Z"/>
</mask>
<path d="M9.84473 2L10.5518 2.70711L3.70686 9.55208L2.99976 8.84497L9.84473 2Z" fill="#34404B"/>
<path d="M10.4104 2.56569L3.56544 9.41066L3.84828 9.6935L10.6933 2.84853L10.4104 2.56569ZM3.14118 8.98639L9.98615 2.14142L9.70331 1.85858L2.85833 8.70355L3.14118 8.98639Z" fill="white" mask="url(#path-3-inside-1_7487_348)"/>
<path d="M6.6709 10.9999C9.43232 10.9999 11.6709 8.76136 11.6709 5.99994C11.6709 3.23852 9.43232 0.999939 6.6709 0.999939C3.90947 0.999939 1.6709 3.23852 1.6709 5.99994C1.6709 8.76136 3.90947 10.9999 6.6709 10.9999Z" stroke="#34404B" stroke-linecap="round" stroke-linejoin="round"/>
</g>
<defs>
<clipPath id="clip0_7487_348">
<rect width="12" height="12" fill="white" transform="translate(0.666992)"/>
</clipPath>
</defs>
</svg>
