<svg width="16" height="10" viewBox="0 0 16 10" fill="none" xmlns="http://www.w3.org/2000/svg">
<path d="M9.20005 5.80001C8.64432 5.80001 8.17205 5.60561 7.78325 5.21681C7.39445 4.82801 7.20005 4.35575 7.20005 3.80001C7.20005 3.24428 7.39445 2.77201 7.78325 2.38321C8.17205 1.99441 8.64432 1.80001 9.20005 1.80001C9.75578 1.80001 10.228 1.99441 10.6168 2.38321C11.0056 2.77201 11.2 3.24428 11.2 3.80001C11.2 4.35575 11.0056 4.82801 10.6168 5.21681C10.228 5.60561 9.75578 5.80001 9.20005 5.80001ZM4.40005 7.40001C4.06672 7.40001 3.78352 7.28321 3.55045 7.04961C3.31685 6.81655 3.20005 6.53335 3.20005 6.20001V1.40001C3.20005 1.06668 3.31685 0.783479 3.55045 0.550412C3.78352 0.316812 4.06672 0.200012 4.40005 0.200012H14C14.3334 0.200012 14.6166 0.316812 14.8496 0.550412C15.0832 0.783479 15.2 1.06668 15.2 1.40001V6.20001C15.2 6.53335 15.0832 6.81655 14.8496 7.04961C14.6166 7.28321 14.3334 7.40001 14 7.40001H4.40005ZM5.60005 6.20001H12.8C12.8 5.86668 12.9168 5.58348 13.1504 5.35041C13.3835 5.11681 13.6667 5.00001 14 5.00001V2.60001C13.6667 2.60001 13.3835 2.48321 13.1504 2.24961C12.9168 2.01655 12.8 1.73335 12.8 1.40001H5.60005C5.60005 1.73335 5.48325 2.01655 5.24965 2.24961C5.01658 2.48321 4.73338 2.60001 4.40005 2.60001V5.00001C4.73338 5.00001 5.01658 5.11681 5.24965 5.35041C5.48325 5.58348 5.60005 5.86668 5.60005 6.20001ZM13.2 9.80001H2.00005C1.66672 9.80001 1.38352 9.68321 1.15045 9.44961C0.916849 9.21655 0.800049 8.93334 0.800049 8.60001V1.80001H2.00005V8.60001H13.2V9.80001Z" fill="#1C1B1F"/>
</svg>
