<svg width="25" height="24" viewBox="0 0 25 24" fill="none" xmlns="http://www.w3.org/2000/svg">
<mask id="mask0_356_17706" style="mask-type:alpha" maskUnits="userSpaceOnUse" x="0" y="0" width="25" height="24">
<rect x="0.5" width="24" height="24" fill="#D9D9D9"/>
</mask>
<g mask="url(#mask0_356_17706)">
<path d="M7.09999 22.8C6.59999 22.8 6.17519 22.6248 5.82559 22.2744C5.47519 21.9248 5.29999 21.5 5.29999 21V3.00001C5.29999 2.50001 5.47519 2.07521 5.82559 1.72561C6.17519 1.37521 6.59999 1.20001 7.09999 1.20001H17.9C18.4 1.20001 18.8248 1.37521 19.1744 1.72561C19.5248 2.07521 19.7 2.50001 19.7 3.00001V21C19.7 21.5 19.5248 21.9248 19.1744 22.2744C18.8248 22.6248 18.4 22.8 17.9 22.8H7.09999ZM7.09999 17.4V21H17.9V17.4H7.09999ZM12.5 20.1C12.7496 20.1 12.962 20.0124 13.1372 19.8372C13.3124 19.662 13.4 19.4496 13.4 19.2C13.4 18.9504 13.3124 18.738 13.1372 18.5628C12.962 18.3876 12.7496 18.3 12.5 18.3C12.2504 18.3 12.038 18.3876 11.8628 18.5628C11.6876 18.738 11.6 18.9504 11.6 19.2C11.6 19.4496 11.6876 19.662 11.8628 19.8372C12.038 20.0124 12.2504 20.1 12.5 20.1ZM7.09999 15.6H17.9V6.00001H7.09999V15.6ZM7.09999 4.20001H17.9V3.00001H7.09999V4.20001Z" fill="#1C1B1F"/>
</g>
</svg>
