<svg width="17" height="16" viewBox="0 0 17 16" fill="none" xmlns="http://www.w3.org/2000/svg">
<path d="M8.39514 10C9.5254 10 10.4417 9.10457 10.4417 8C10.4417 6.89543 9.5254 6 8.39514 6C7.26489 6 6.34863 6.89543 6.34863 8C6.34863 9.10457 7.26489 10 8.39514 10Z" stroke="#00C191" stroke-miterlimit="10" stroke-linecap="round"/>
<path d="M8.39478 12C10.6553 12 12.4878 10.2091 12.4878 8C12.4878 5.79086 10.6553 4 8.39478 4C6.13427 4 4.30176 5.79086 4.30176 8C4.30176 10.2091 6.13427 12 8.39478 12Z" stroke="#00C191" stroke-miterlimit="10" stroke-linecap="round"/>
<path d="M8.39551 12V14" stroke="#00C191" stroke-linecap="round" stroke-linejoin="round"/>
<path d="M8.39551 2V4" stroke="#00C191" stroke-linecap="round" stroke-linejoin="round"/>
<path d="M4.30176 8L2.25525 8" stroke="#00C191" stroke-linecap="round" stroke-linejoin="round"/>
<path d="M14.5342 8L12.4877 8" stroke="#00C191" stroke-linecap="round" stroke-linejoin="round"/>
</svg>
