<svg width="20" height="20" viewBox="0 0 20 20" fill="none" xmlns="http://www.w3.org/2000/svg">
<path d="M10 12.5C11.3807 12.5 12.5 11.3807 12.5 10C12.5 8.61929 11.3807 7.5 10 7.5C8.61929 7.5 7.5 8.61929 7.5 10C7.5 11.3807 8.61929 12.5 10 12.5Z" stroke="#1A2835" stroke-width="1.5" stroke-miterlimit="10" stroke-linecap="round"/>
<path d="M10 15C12.7614 15 15 12.7614 15 10C15 7.23858 12.7614 5 10 5C7.23858 5 5 7.23858 5 10C5 12.7614 7.23858 15 10 15Z" stroke="#1A2835" stroke-width="1.5" stroke-miterlimit="10" stroke-linecap="round"/>
<path d="M10 15V17.5" stroke="#1A2835" stroke-width="1.5" stroke-linecap="round" stroke-linejoin="round"/>
<path d="M10 2.5V5" stroke="#1A2835" stroke-width="1.5" stroke-linecap="round" stroke-linejoin="round"/>
<path d="M5 10L2.5 10" stroke="#1A2835" stroke-width="1.5" stroke-linecap="round" stroke-linejoin="round"/>
<path d="M17.5 10L15 10" stroke="#1A2835" stroke-width="1.5" stroke-linecap="round" stroke-linejoin="round"/>
</svg>
