<svg width="24" height="24" viewBox="0 0 24 24" fill="none" xmlns="http://www.w3.org/2000/svg">
<path d="M0 10.9091V5.45455H1.62809V8.12727L8.08619 1.63636H5.42698V0H10.854V5.45455H9.22586V2.78182L2.76776 9.27273H5.42698V10.9091H0ZM13.7031 24C13.3956 24 13.1152 23.9407 12.8619 23.8222C12.6087 23.7044 12.3825 23.5455 12.1836 23.3455L6.62091 17.7L8.14046 16.1455C8.39372 15.8909 8.68316 15.7091 9.00878 15.6C9.3344 15.4909 9.66906 15.4727 10.0128 15.5455L12.0479 15.9818V7.09091C12.0479 6.32727 12.3102 5.68182 12.8348 5.15455C13.3594 4.62727 14.0016 4.36364 14.7614 4.36364C15.5212 4.36364 16.1633 4.62727 16.6879 5.15455C17.2126 5.68182 17.4749 6.32727 17.4749 7.09091V12H18.1804C18.2708 12 18.3522 12.0091 18.4246 12.0273C18.4969 12.0455 18.5783 12.0727 18.6688 12.1091L22.7933 13.9364C23.2275 14.1364 23.5531 14.4545 23.7702 14.8909C23.9872 15.3273 24.0505 15.7818 23.9601 16.2545L22.9561 22.1727C22.8657 22.7 22.6171 23.1364 22.2104 23.4818C21.8031 23.8273 21.3371 24 20.8125 24H13.7031ZM13.7302 21.8182H20.8125L21.8164 15.8727L17.2035 13.8273H15.3041V7.09091C15.3041 6.92727 15.2545 6.79527 15.1554 6.69491C15.0555 6.59527 14.9242 6.54545 14.7614 6.54545C14.5986 6.54545 14.4676 6.59527 14.3685 6.69491C14.2686 6.79527 14.2187 6.92727 14.2187 7.09091V18.6545L9.68715 17.7L13.7302 21.8182Z" fill="black"/>
</svg>
 