<svg width="19" height="18" viewBox="0 0 19 18" fill="none" xmlns="http://www.w3.org/2000/svg">
<mask id="mask0_515_2194" style="mask-type:alpha" maskUnits="userSpaceOnUse" x="0" y="0" width="19" height="18">
<rect x="0.0712967" width="18" height="18" fill="#D9D9D9"/>
</mask>
<g mask="url(#mask0_515_2194)">
<path d="M7.3838 7.21875V10.7812C7.3838 11.0562 7.50255 11.2563 7.74005 11.3813C7.97755 11.5063 8.2088 11.4937 8.4338 11.3438L11.2275 9.58125C11.44 9.44375 11.5463 9.25 11.5463 9C11.5463 8.75 11.44 8.55625 11.2275 8.41875L8.4338 6.65625C8.2088 6.50625 7.97755 6.49375 7.74005 6.61875C7.50255 6.74375 7.3838 6.94375 7.3838 7.21875ZM9.0713 16.125C8.0838 16.125 7.1558 15.9375 6.2873 15.5625C5.4183 15.1875 4.66505 14.6813 4.02755 14.0438C3.39005 13.4062 2.8838 12.653 2.5088 11.784C2.1338 10.9155 1.9463 9.9875 1.9463 9C1.9463 8.0125 2.1338 7.08425 2.5088 6.21525C2.8838 5.34675 3.39005 4.59375 4.02755 3.95625C4.66505 3.31875 5.4183 2.8125 6.2873 2.4375C7.1558 2.0625 8.0838 1.875 9.0713 1.875C10.0588 1.875 10.987 2.0625 11.856 2.4375C12.7245 2.8125 13.4775 3.31875 14.115 3.95625C14.7525 4.59375 15.2588 5.34675 15.6338 6.21525C16.0088 7.08425 16.1963 8.0125 16.1963 9C16.1963 9.9875 16.0088 10.9155 15.6338 11.784C15.2588 12.653 14.7525 13.4062 14.115 14.0438C13.4775 14.6813 12.7245 15.1875 11.856 15.5625C10.987 15.9375 10.0588 16.125 9.0713 16.125ZM9.0713 15C10.7338 15 12.1495 14.4158 13.3185 13.2472C14.487 12.0782 15.0713 10.6625 15.0713 9C15.0713 7.3375 14.487 5.92175 13.3185 4.75275C12.1495 3.58425 10.7338 3 9.0713 3C7.4088 3 5.9933 3.58425 4.8248 4.75275C3.6558 5.92175 3.0713 7.3375 3.0713 9C3.0713 10.6625 3.6558 12.0782 4.8248 13.2472C5.9933 14.4158 7.4088 15 9.0713 15Z" fill="#00C191"/>
</g>
</svg>
