<svg width="24" height="24" viewBox="0 0 24 24" fill="none" xmlns="http://www.w3.org/2000/svg">
<path d="M10.8716 14.6042C10.8335 14.6042 10.8027 14.5734 10.8027 14.5354C10.8118 13.805 10.9025 13.2237 11.0748 12.7916C11.2472 12.3595 11.4921 12.0096 11.8095 11.7419C12.127 11.4742 12.5079 11.2275 12.9524 11.0019C13.22 10.8642 13.4603 10.7017 13.6735 10.5143C13.8866 10.3231 14.0544 10.1033 14.1769 9.85468C14.3039 9.60612 14.3673 9.33078 14.3673 9.02868C14.3673 8.65392 14.263 8.32887 14.0544 8.05354C13.8458 7.7782 13.5669 7.56597 13.2177 7.41683C12.8685 7.26769 12.4807 7.19312 12.0544 7.19312C11.6825 7.19312 11.3243 7.25813 10.9796 7.38815C10.6349 7.51816 10.3469 7.72275 10.1156 8.00191C10.0346 8.09975 9.96549 8.20816 9.90838 8.32715C9.71313 8.73393 9.3666 9.09751 8.91538 9.09751C8.4183 9.09751 8.00739 8.67036 8.17357 8.20188C8.27354 7.92008 8.41523 7.66222 8.59864 7.4283C8.96599 6.96558 9.44898 6.61185 10.0476 6.36711C10.6508 6.12237 11.3197 6 12.0544 6C12.8526 6 13.5465 6.13384 14.1361 6.40153C14.7302 6.66922 15.1882 7.03633 15.5102 7.50287C15.8367 7.96941 16 8.50096 16 9.09751C16 9.51816 15.9229 9.89866 15.7687 10.239C15.619 10.5793 15.4014 10.8834 15.1156 11.1511C14.8345 11.4187 14.4943 11.6558 14.0952 11.8623C13.6961 12.0727 13.3764 12.2945 13.1361 12.5277C12.8957 12.7572 12.7211 13.0306 12.6122 13.348C12.5034 13.6654 12.4444 14.0612 12.4354 14.5354C12.4354 14.5734 12.4046 14.6042 12.3665 14.6042H10.8716ZM11.6735 18C11.3379 18 11.0499 17.8987 10.8095 17.696C10.5692 17.4933 10.449 17.2505 10.449 16.9675C10.449 16.6845 10.5692 16.4417 10.8095 16.239C11.0499 16.0363 11.3379 15.935 11.6735 15.935C12.0091 15.935 12.2971 16.0363 12.5374 16.239C12.7778 16.4417 12.898 16.6845 12.898 16.9675C12.898 17.1549 12.8413 17.327 12.7279 17.4837C12.619 17.6405 12.4717 17.7667 12.2857 17.8623C12.1043 17.9541 11.9002 18 11.6735 18Z" fill="#1A2835"/>
<circle cx="12" cy="12" r="10" stroke="#1A2835" stroke-width="1.5"/>
</svg>
