<svg width="15" height="15" viewBox="0 0 15 15" fill="none" xmlns="http://www.w3.org/2000/svg">
<path d="M10.6168 7.8H10.5L9.29999 6.6H10.6168L11.9832 3.4H6.09999L4.89999 2.2H13.2C13.3445 2.2 13.4557 2.26107 13.5336 2.3832C13.6109 2.50534 13.6219 2.63307 13.5664 2.7664L11.7168 7.0664C11.6165 7.2888 11.4664 7.46667 11.2664 7.6C11.0664 7.73334 10.8499 7.8 10.6168 7.8ZM4.39999 13.4C4.06666 13.4 3.78346 13.2832 3.55039 13.0496C3.31679 12.8165 3.19999 12.5333 3.19999 12.2C3.19999 11.8779 3.31679 11.5973 3.55039 11.3584C3.78346 11.1195 4.06666 11 4.39999 11C4.72213 11 5.00266 11.1195 5.24159 11.3584C5.48053 11.5973 5.59999 11.8779 5.59999 12.2C5.59999 12.5333 5.48053 12.8165 5.24159 13.0496C5.00266 13.2832 4.72213 13.4 4.39999 13.4ZM13.3664 14.0664L9.51679 10.2H4.59999C4.14453 10.2 3.79999 10.0056 3.56639 9.6168C3.33333 9.228 3.32799 8.8224 3.55039 8.4L4.41679 6.9L3.06639 3.7664L0.933594 1.6336L1.78319 0.783203L14.2168 13.2336L13.3664 14.0664ZM8.29999 9L7.09999 7.8H5.28319L4.58319 9H8.29999ZM11.4496 13.4C11.1168 13.4 10.8363 13.2832 10.608 13.0496C10.3803 12.8165 10.2664 12.5333 10.2664 12.2C10.2664 11.8779 10.3803 11.5973 10.608 11.3584C10.8363 11.1195 11.1168 11 11.4496 11C11.7723 11 12.0531 11.1083 12.292 11.3248C12.5304 11.5413 12.6496 11.8109 12.6496 12.1336C12.6496 12.4888 12.5331 12.7888 12.3 13.0336C12.0669 13.2779 11.7835 13.4 11.4496 13.4Z" fill="#1C1B1F"/>
</svg>
