<?xml version="1.0" standalone="no"?>
<!DOCTYPE svg PUBLIC "-//W3C//DTD SVG 20010904//EN"
 "http://www.w3.org/TR/2001/REC-SVG-20010904/DTD/svg10.dtd">
<svg version="1.0" xmlns="http://www.w3.org/2000/svg"
 width="18.000000pt" height="18.000000pt" viewBox="0 0 512.000000 512.000000"
 preserveAspectRatio="xMidYMid meet">

<g transform="translate(0.000000,512.000000) scale(0.100000,-0.100000)"
fill="#000000" stroke="none">
<path d="M4112 4684 c-44 -31 -31 -66 71 -183 50 -58 98 -113 105 -123 11 -14
-65 -76 -664 -538 -372 -287 -677 -520 -678 -518 -15 22 -554 658 -569 671
-12 10 -30 17 -42 14 -32 -6 -1793 -1276 -1800 -1298 -8 -25 17 -65 45 -74 13
-4 32 0 48 11 15 9 399 284 854 611 454 326 832 595 840 598 9 4 115 -114 301
-335 248 -294 291 -340 315 -340 20 0 197 131 736 547 l709 546 21 -25 c95
-115 185 -210 204 -215 17 -4 30 1 47 18 23 23 24 36 41 297 18 269 18 272 -1
292 -18 17 -47 21 -245 35 -124 8 -245 17 -270 20 -32 4 -52 0 -68 -11z m346
-130 l132 -7 -6 -96 c-4 -53 -9 -121 -13 -150 l-6 -55 -131 150 c-147 168
-155 179 -128 171 11 -3 79 -9 152 -13z"/>
<path d="M3590 3434 c-45 -20 -97 -69 -122 -118 -38 -73 -21 -204 33 -262 l20
-22 -30 -43 c-57 -81 -59 -189 -5 -276 l30 -48 -28 -40 c-56 -80 -55 -201 3
-284 l30 -43 -20 -22 c-72 -76 -71 -233 1 -312 19 -22 19 -22 -11 -65 -58 -83
-59 -203 -3 -284 l28 -40 -33 -55 c-54 -89 -46 -218 19 -287 l21 -23 -21 -23
c-73 -77 -73 -234 0 -313 19 -22 19 -22 -11 -65 -76 -109 -53 -264 51 -339 68
-50 96 -52 723 -48 577 3 580 3 621 25 137 73 176 245 83 364 -27 36 -28 37
-9 54 10 9 28 40 40 68 32 73 24 159 -19 229 l-32 51 26 37 c51 74 59 164 21
245 -12 28 -30 56 -39 63 -15 13 -14 17 12 50 35 45 51 92 51 147 0 52 -25
128 -51 151 -25 22 -25 24 14 85 29 47 32 60 32 129 0 70 -3 82 -33 130 l-33
53 21 29 c30 41 50 103 50 157 0 49 -35 136 -64 160 -16 13 -15 15 3 35 73 78
80 214 16 306 l-26 37 33 53 c30 48 33 60 33 129 0 59 -5 85 -22 118 -27 50
-81 96 -132 112 -27 8 -216 11 -637 11 -512 -1 -604 -3 -634 -16z m1258 -120
c49 -34 66 -109 37 -164 -32 -61 -17 -60 -659 -60 l-584 0 -31 26 c-37 31 -53
81 -40 128 5 19 23 46 40 60 l31 26 592 0 c520 0 594 -2 614 -16z m-13 -360
c73 -34 87 -142 25 -196 l-30 -28 -599 0 -599 0 -30 30 c-54 54 -46 145 17
187 l34 23 574 0 c499 0 579 -2 608 -16z m-24 -354 c74 -21 109 -101 74 -173
-32 -69 -17 -67 -658 -67 l-574 0 -34 23 c-83 56 -63 195 31 217 51 12 1117
12 1161 0z m29 -375 c35 -18 60 -62 60 -105 0 -17 -7 -44 -15 -60 -32 -61 -17
-60 -659 -60 l-584 0 -31 26 c-17 14 -35 41 -40 60 -13 47 3 97 40 128 l31 26
584 0 c503 0 589 -2 614 -15z m-5 -361 c43 -20 69 -73 62 -126 -7 -49 -38 -85
-86 -98 -54 -15 -1126 -12 -1170 3 -48 17 -73 54 -73 110 0 56 14 82 55 107
31 19 55 20 605 20 502 0 578 -2 607 -16z m13 -370 c50 -35 66 -112 35 -165
-36 -60 -26 -59 -656 -59 l-574 0 -34 23 c-63 42 -71 133 -17 187 l30 30 597
0 c524 0 599 -2 619 -16z m-8 -359 c55 -28 76 -105 45 -165 -32 -63 -2 -60
-648 -60 -535 0 -592 2 -618 17 -74 44 -67 170 12 210 18 10 163 13 602 13
497 0 582 -2 607 -15z m22 -383 c29 -29 33 -39 33 -86 0 -40 -5 -60 -20 -76
-44 -50 -46 -50 -645 -50 -607 0 -610 0 -645 54 -22 33 -22 109 0 142 35 54
32 54 662 51 l583 -2 32 -33z"/>
<path d="M1910 2719 c-142 -57 -194 -252 -99 -372 l30 -37 -23 -29 c-21 -26
-28 -28 -68 -24 -57 6 -173 -11 -254 -38 -152 -51 -303 -184 -375 -331 -40
-81 -71 -180 -71 -225 l0 -23 -371 0 c-253 0 -384 -4 -410 -12 -87 -26 -169
-135 -169 -224 0 -54 24 -122 56 -155 l25 -26 -35 -52 c-38 -56 -52 -119 -41
-178 8 -44 37 -104 59 -122 14 -11 12 -17 -13 -49 -94 -121 -55 -290 84 -365
39 -22 47 -22 620 -25 626 -4 655 -2 723 48 103 74 127 230 53 337 l-30 42 20
25 c19 24 27 26 98 26 75 0 78 -1 100 -31 23 -31 23 -31 3 -52 -41 -45 -56
-90 -56 -162 0 -101 41 -171 129 -218 40 -22 47 -22 629 -25 673 -3 664 -4
741 73 91 90 96 240 13 332 l-20 21 31 45 c60 88 62 178 5 273 l-34 56 25 30
c14 16 32 55 41 85 20 70 8 141 -37 202 l-29 41 29 41 c66 90 61 202 -12 301
l-21 28 21 22 c75 82 78 212 8 304 l-27 35 20 22 c102 112 67 304 -68 372
l-49 25 -613 -1 c-378 0 -622 -4 -638 -10z m1260 -129 c59 -42 61 -137 4 -191
l-26 -24 -584 -3 c-651 -3 -636 -4 -668 63 -20 41 -20 78 -1 115 32 63 2 60
653 60 580 0 595 0 622 -20z m-9 -363 c66 -44 70 -139 8 -191 l-31 -26 -449 0
-450 0 -31 36 c-42 48 -143 118 -219 153 -61 28 -63 30 -39 40 16 6 235 10
601 10 l576 1 34 -23z m-1336 -102 c311 -65 502 -365 430 -674 -46 -192 -210
-355 -410 -406 -206 -52 -446 36 -570 210 -77 107 -107 201 -106 333 0 299
242 543 546 551 22 0 72 -6 110 -14z m1299 -246 c99 -27 124 -153 43 -213 -28
-20 -41 -21 -401 -24 l-373 -3 -13 63 c-6 35 -21 86 -31 113 -10 28 -19 56
-19 63 0 16 735 18 794 1z m-2069 -406 c6 -41 27 -115 50 -175 7 -17 -16 -18
-399 -18 l-406 0 -36 33 c-48 43 -56 97 -22 147 41 60 38 60 439 60 l367 0 7
-47z m2106 24 c66 -44 70 -139 8 -191 l-31 -26 -408 0 -409 0 20 48 c17 39 48
157 49 185 0 4 166 7 369 7 367 0 368 0 402 -23z m-1918 -389 c58 -58 147
-119 213 -144 25 -9 43 -22 41 -28 -5 -15 -1190 -21 -1218 -5 -29 15 -59 69
-59 105 0 43 39 97 80 111 25 8 159 12 464 12 l429 1 50 -52z m1896 34 c68
-34 92 -103 57 -169 -32 -64 -26 -63 -644 -63 -538 0 -622 4 -622 30 0 4 12
11 28 15 53 13 155 78 221 141 l66 63 430 1 c390 0 433 -2 464 -18z m-1618
-381 c37 -38 43 -112 12 -159 -33 -52 -37 -53 -663 -50 l-580 3 -32 33 c-29
29 -33 39 -33 88 0 50 3 58 33 85 l32 29 601 0 601 0 29 -29z m1646 3 c15 -11
34 -39 42 -61 13 -35 13 -46 0 -78 -8 -21 -27 -47 -42 -59 -28 -21 -36 -21
-602 -24 -635 -3 -626 -4 -665 60 -25 42 -25 84 0 126 38 63 26 62 662 59 567
-2 577 -2 605 -23z"/>
<path d="M1682 2074 c-15 -11 -22 -25 -22 -49 0 -31 -5 -37 -49 -60 -83 -42
-122 -108 -122 -207 -1 -119 83 -210 209 -228 74 -10 97 -22 117 -60 45 -86
-25 -183 -119 -166 -43 8 -81 51 -91 103 -4 21 -11 44 -17 51 -13 15 -70 16
-86 0 -18 -18 -14 -97 7 -143 20 -45 80 -102 123 -117 24 -9 28 -15 28 -47 0
-44 24 -71 63 -71 32 0 57 33 57 76 0 26 6 34 31 45 81 33 139 123 139 215 0
67 -40 146 -92 184 -35 25 -61 34 -176 56 -43 9 -72 51 -72 106 0 43 4 54 31
79 25 23 40 29 76 29 38 0 50 -5 79 -34 24 -24 34 -43 34 -65 0 -34 30 -71 58
-71 90 0 80 145 -16 232 -23 21 -53 40 -67 44 -21 5 -25 12 -25 40 0 37 -29
74 -58 74 -10 0 -28 -7 -40 -16z"/>
</g>
</svg>
