<svg width="14" height="14" viewBox="0 0 14 14" fill="none" xmlns="http://www.w3.org/2000/svg">
<path d="M6.99985 13.4C6.12199 13.4 5.29425 13.2333 4.51665 12.9C3.73905 12.5666 3.05852 12.1082 2.47505 11.5248C1.89159 10.9413 1.43319 10.2608 1.09985 9.48318C0.76652 8.70558 0.599854 7.87784 0.599854 6.99998C0.599854 6.11091 0.76652 5.27758 1.09985 4.49998C1.43319 3.72238 1.89159 3.04451 2.47505 2.46638C3.05852 1.88878 3.73905 1.43331 4.51665 1.09998C5.29425 0.766642 6.12199 0.599976 6.99985 0.599976C7.88892 0.599976 8.72225 0.766642 9.49985 1.09998C10.2775 1.43331 10.9553 1.88878 11.5335 2.46638C12.1111 3.04451 12.5665 3.72238 12.8999 4.49998C13.2332 5.27758 13.3999 6.11091 13.3999 6.99998C13.3999 7.87784 13.2332 8.70558 12.8999 9.48318C12.5665 10.2608 12.1111 10.9413 11.5335 11.5248C10.9553 12.1082 10.2775 12.5666 9.49985 12.9C8.72225 13.2333 7.88892 13.4 6.99985 13.4ZM6.99985 12.2C8.44412 12.2 9.67185 11.6917 10.6831 10.6752C11.6943 9.65864 12.1999 8.43358 12.1999 6.99998C12.1999 5.55571 11.6943 4.32798 10.6831 3.31678C9.67185 2.30558 8.44412 1.79998 6.99985 1.79998C5.56625 1.79998 4.34119 2.30558 3.32465 3.31678C2.30812 4.32798 1.79985 5.55571 1.79985 6.99998C1.79985 8.43358 2.30812 9.65864 3.32465 10.6752C4.34119 11.6917 5.56625 12.2 6.99985 12.2ZM7.93345 6.29998L8.24945 6.11678C8.27185 6.37224 8.37212 6.58344 8.55025 6.75038C8.72785 6.91678 8.94439 6.99998 9.19985 6.99998C9.45532 6.99998 9.67479 6.90558 9.85825 6.71678C10.0417 6.52798 10.1335 6.30558 10.1335 6.04958C10.1335 5.89438 10.0972 5.74718 10.0247 5.60798C9.95265 5.46931 9.84999 5.35544 9.71665 5.26638L10.2663 4.95038L9.83345 4.29998L7.49985 5.63358L7.93345 6.29998ZM6.04945 6.29998L6.48305 5.63358L4.15025 4.29998L3.71665 4.95038L4.28305 5.26638C4.14972 5.35544 4.04412 5.46931 3.96625 5.60798C3.88839 5.74718 3.84945 5.89438 3.84945 6.04958C3.84945 6.30558 3.94412 6.52798 4.13345 6.71678C4.32225 6.90558 4.54439 6.99998 4.79985 6.99998C5.05532 6.99998 5.27185 6.91678 5.44945 6.75038C5.62759 6.58344 5.72785 6.37224 5.75025 6.11678L6.04945 6.29998ZM7.01665 7.79998C6.31639 7.79998 5.70252 8.02504 5.17505 8.47518C4.64705 8.92531 4.32199 9.50024 4.19985 10.2H9.79985C9.69959 9.50024 9.38572 8.92531 8.85825 8.47518C8.33025 8.02504 7.71639 7.79998 7.01665 7.79998Z" fill="#1C1B1F"/>
</svg>
