<svg width="14" height="14" viewBox="0 0 14 14" fill="none" xmlns="http://www.w3.org/2000/svg">
<path d="M7.64954 13.6336V12.2336C8.11674 12.1669 8.56421 12.0419 8.99194 11.8584C9.41967 11.6749 9.82794 11.4389 10.2167 11.1504L11.2335 12.1504C10.7002 12.5723 10.1306 12.9083 9.52474 13.1584C8.91941 13.4085 8.29434 13.5669 7.64954 13.6336ZM12.1503 11.2L11.1663 10.2168C11.4554 9.86106 11.6861 9.46666 11.8583 9.03359C12.0306 8.59999 12.1501 8.14426 12.2167 7.66639H13.6495C13.561 8.35546 13.3917 8.99999 13.1415 9.59999C12.8914 10.2 12.561 10.7333 12.1503 11.2ZM12.2167 6.35039C12.1389 5.87253 12.0165 5.41413 11.8495 4.97519C11.6831 4.53626 11.4554 4.13893 11.1663 3.78319L12.1503 2.79999C12.5722 3.27786 12.9138 3.82239 13.1751 4.43359C13.4359 5.04479 13.5941 5.68373 13.6495 6.35039H12.2167ZM6.33354 13.6336C4.63328 13.4555 3.21088 12.7331 2.06634 11.4664C0.922342 10.1997 0.350342 8.71093 0.350342 6.99999C0.350342 5.28906 0.922342 3.80026 2.06634 2.53359C3.21088 1.26693 4.63328 0.544527 6.33354 0.366394V1.76639C5.02208 1.94453 3.93034 2.53066 3.05834 3.52479C2.18634 4.51946 1.75034 5.67786 1.75034 6.99999C1.75034 8.32213 2.18634 9.48053 3.05834 10.4752C3.93034 11.4693 5.02208 12.0555 6.33354 12.2336V13.6336ZM10.2495 2.84959C9.84954 2.56106 9.43034 2.32239 8.99194 2.13359C8.55301 1.94426 8.10021 1.82186 7.63354 1.76639V0.366394C8.30021 0.421861 8.93621 0.577594 9.54154 0.833594C10.1469 1.08906 10.7109 1.42773 11.2335 1.84959L10.2495 2.84959ZM6.99994 10.7C6.01114 9.86639 5.27514 9.08853 4.79194 8.36639C4.30821 7.64426 4.06634 6.97759 4.06634 6.36639C4.06634 5.44426 4.36368 4.71093 4.95834 4.16639C5.55248 3.62239 6.23301 3.35039 6.99994 3.35039C7.76688 3.35039 8.44741 3.62239 9.04154 4.16639C9.63621 4.71093 9.93354 5.44426 9.93354 6.36639C9.93354 6.97759 9.69168 7.64426 9.20794 8.36639C8.72474 9.08853 7.98874 9.86639 6.99994 10.7ZM6.99994 7.03359C7.22234 7.03359 7.40848 6.95839 7.55834 6.80799C7.70821 6.65813 7.78314 6.47199 7.78314 6.24959C7.78314 6.03893 7.70821 5.85573 7.55834 5.69999C7.40848 5.54426 7.22234 5.46639 6.99994 5.46639C6.77754 5.46639 6.59141 5.54426 6.44154 5.69999C6.29168 5.85573 6.21674 6.03893 6.21674 6.24959C6.21674 6.47199 6.29168 6.65813 6.44154 6.80799C6.59141 6.95839 6.77754 7.03359 6.99994 7.03359Z" fill="#1C1B1F"/>
</svg>
