<svg width="25" height="24" viewBox="0 0 25 24" fill="none" xmlns="http://www.w3.org/2000/svg">
<mask id="mask0_356_17705" style="mask-type:alpha" maskUnits="userSpaceOnUse" x="0" y="0" width="25" height="24">
<rect x="0.5" width="24" height="24" fill="#D9D9D9"/>
</mask>
<g mask="url(#mask0_356_17705)">
<path d="M3.50001 19.2C3.00001 19.2 2.57521 19.0248 2.22561 18.6744C1.87521 18.3248 1.70001 17.9 1.70001 17.4V6.59999C1.70001 6.09999 1.87521 5.67519 2.22561 5.32559C2.57521 4.97519 3.00001 4.79999 3.50001 4.79999H21.5C22 4.79999 22.4248 4.97519 22.7744 5.32559C23.1248 5.67519 23.3 6.09999 23.3 6.59999V17.4C23.3 17.9 23.1248 18.3248 22.7744 18.6744C22.4248 19.0248 22 19.2 21.5 19.2H3.50001ZM4.70001 6.59999H3.50001V17.4H4.70001V6.59999ZM6.50001 17.4H18.5V6.59999H6.50001V17.4ZM20.3 6.59999V17.4H21.5V6.59999H20.3Z" fill="#1C1B1F"/>
</g>
</svg>
