<svg width="10" height="14" viewBox="0 0 10 14" fill="none" xmlns="http://www.w3.org/2000/svg">
<path d="M4.31675 11L7.99995 7.31684L7.09995 6.41684L4.31675 9.20004L2.96635 7.83364L2.04955 8.73364L4.31675 11ZM1.39995 13.4C1.06662 13.4 0.783418 13.2832 0.550351 13.0496C0.316751 12.8166 0.199951 12.5334 0.199951 12.2V1.80004C0.199951 1.4667 0.316751 1.1835 0.550351 0.950437C0.783418 0.716837 1.06662 0.600037 1.39995 0.600037H6.59995L9.79995 3.80004V12.2C9.79995 12.5334 9.68315 12.8166 9.44955 13.0496C9.21648 13.2832 8.93328 13.4 8.59995 13.4H1.39995ZM5.79995 4.60004V1.80004H1.39995V12.2H8.59995V4.60004H5.79995Z" fill="#1C1B1F"/>
</svg>
