<svg width="16" height="8" viewBox="0 0 16 8" fill="none" xmlns="http://www.w3.org/2000/svg">
<path d="M2.00005 8C1.66672 8 1.38352 7.8832 1.15045 7.6496C0.916849 7.41653 0.800049 7.13333 0.800049 6.8C0.800049 6.46667 0.916849 6.18347 1.15045 5.9504C1.38352 5.7168 1.66672 5.6 2.00005 5.6C2.05552 5.6 2.10832 5.60267 2.15845 5.608C2.20858 5.61387 2.26138 5.6224 2.31685 5.6336L5.64965 2.3C5.62778 2.24453 5.61392 2.19467 5.60805 2.1504C5.60272 2.1056 5.60005 2.05547 5.60005 2C5.60005 1.66667 5.71685 1.38347 5.95045 1.1504C6.18352 0.9168 6.46672 0.8 6.80005 0.8C7.13338 0.8 7.41658 0.9168 7.64965 1.1504C7.88325 1.38347 8.00005 1.66667 8.00005 2C8.00005 2.03307 7.98352 2.13307 7.95045 2.3L9.70005 4.0496C9.75552 4.02773 9.80538 4.01387 9.84965 4.008C9.89445 4.00267 9.94458 4 10 4C10.0555 4 10.1083 4.00267 10.1584 4.008C10.2086 4.01387 10.2614 4.0224 10.3168 4.0336L12.8496 1.5C12.8278 1.44453 12.8139 1.39467 12.808 1.3504C12.8027 1.3056 12.8 1.25547 12.8 1.2C12.8 0.866667 12.9168 0.583467 13.1504 0.3504C13.3835 0.1168 13.6667 0 14 0C14.3334 0 14.6166 0.1168 14.8496 0.3504C15.0832 0.583467 15.2 0.866667 15.2 1.2C15.2 1.53333 15.0832 1.81653 14.8496 2.0496C14.6166 2.2832 14.3334 2.4 14 2.4C13.9446 2.4 13.8918 2.39733 13.8416 2.392C13.7915 2.38613 13.7387 2.3776 13.6832 2.3664L11.1504 4.9C11.1723 4.95547 11.1862 5.00533 11.192 5.0496C11.1974 5.0944 11.2 5.14453 11.2 5.2C11.2 5.53333 11.0832 5.81653 10.8496 6.0496C10.6166 6.2832 10.3334 6.4 10 6.4C9.66672 6.4 9.38352 6.2832 9.15045 6.0496C8.91685 5.81653 8.80005 5.53333 8.80005 5.2C8.80005 5.14453 8.80272 5.09173 8.80805 5.0416C8.81392 4.99147 8.82245 4.93867 8.83365 4.8832L7.10005 3.1504C7.04458 3.17227 6.99472 3.18613 6.95045 3.192C6.90565 3.19733 6.85552 3.2 6.80005 3.2C6.74458 3.2 6.63898 3.1888 6.48325 3.1664L3.15045 6.5C3.17232 6.55547 3.18618 6.60533 3.19205 6.6496C3.19738 6.6944 3.20005 6.74453 3.20005 6.8C3.20005 7.13333 3.08325 7.41653 2.84965 7.6496C2.61658 7.8832 2.33338 8 2.00005 8Z" fill="#1C1B1F"/>
</svg>
