<svg width="14" height="14" viewBox="0 0 14 14" fill="none" xmlns="http://www.w3.org/2000/svg">
<path d="M6.99985 13.4C6.12199 13.4 5.29425 13.2334 4.51665 12.9C3.73905 12.5667 3.05852 12.1083 2.47505 11.5248C1.89159 10.9414 1.43319 10.2608 1.09985 9.48324C0.76652 8.70564 0.599854 7.8779 0.599854 7.00004C0.599854 6.11097 0.76652 5.2803 1.09985 4.50804C1.43319 3.7363 1.89159 3.0587 2.47505 2.47524C3.05852 1.89177 3.73905 1.43337 4.51665 1.10004C5.29425 0.766703 6.12199 0.600037 6.99985 0.600037H7.59985V5.96644C7.78865 6.0667 7.93585 6.20857 8.04145 6.39204C8.14705 6.57497 8.19985 6.77764 8.19985 7.00004C8.19985 7.33337 8.08305 7.61657 7.84945 7.84964C7.61639 8.08324 7.33319 8.20004 6.99985 8.20004C6.66652 8.20004 6.38332 8.08324 6.15025 7.84964C5.91665 7.61657 5.79985 7.33337 5.79985 7.00004C5.79985 6.77764 5.85265 6.57497 5.95825 6.39204C6.06385 6.20857 6.21105 6.0667 6.39985 5.96644V4.26644C5.76625 4.39977 5.24119 4.72217 4.82465 5.23364C4.40812 5.74457 4.19985 6.33337 4.19985 7.00004C4.19985 7.77764 4.47212 8.4387 5.01665 8.98324C5.56119 9.52777 6.22225 9.80004 6.99985 9.80004C7.77745 9.80004 8.43852 9.52777 8.98305 8.98324C9.52759 8.4387 9.79985 7.77764 9.79985 7.00004C9.79985 6.61124 9.72759 6.24724 9.58305 5.90804C9.43852 5.56937 9.23852 5.2723 8.98305 5.01684L9.83345 4.16644C10.1887 4.53337 10.4719 4.95844 10.6831 5.44164C10.8943 5.92484 10.9999 6.4443 10.9999 7.00004C10.9999 8.11097 10.6111 9.0555 9.83345 9.83364C9.05532 10.6112 8.11079 11 6.99985 11C5.88892 11 4.94439 10.6112 4.16625 9.83364C3.38865 9.0555 2.99985 8.11097 2.99985 7.00004C2.99985 5.98884 3.32492 5.11657 3.97505 4.38324C4.62519 3.6499 5.43345 3.21097 6.39985 3.06644V1.83364C5.09959 1.98884 4.00785 2.55257 3.12465 3.52484C2.24145 4.4971 1.79985 5.6555 1.79985 7.00004C1.79985 8.4443 2.30545 9.67204 3.31665 10.6832C4.32785 11.6944 5.55559 12.2 6.99985 12.2C8.44412 12.2 9.67185 11.6944 10.6831 10.6832C11.6943 9.67204 12.1999 8.4443 12.1999 7.00004C12.1999 6.2779 12.0665 5.60297 11.7999 4.97524C11.5332 4.3475 11.1609 3.7947 10.6831 3.31684L11.5335 2.46644C12.1111 3.05577 12.5665 3.7363 12.8999 4.50804C13.2332 5.2803 13.3999 6.11097 13.3999 7.00004C13.3999 7.8779 13.2332 8.70564 12.8999 9.48324C12.5665 10.2608 12.1081 10.9414 11.5247 11.5248C10.9412 12.1083 10.2636 12.5667 9.49185 12.9C8.71959 13.2334 7.88892 13.4 6.99985 13.4Z" fill="#1C1B1F"/>
</svg>
