<svg width="24" height="24" viewBox="0 0 24 24" fill="none" xmlns="http://www.w3.org/2000/svg">
<path d="M21.3178 18.0175L13.7423 4.58816C12.9771 3.23168 11.0236 3.23168 10.2584 4.58816L2.68284 18.0175C1.93076 19.3507 2.89406 21.0001 4.42479 21.0001H19.5758C21.1066 21.0001 22.0699 19.3507 21.3178 18.0175Z" fill="#B71E2D"/>
<path fill-rule="evenodd" clip-rule="evenodd" d="M12 8C12.5523 8 13 8.44772 13 9H12H11C11 8.44772 11.4477 8 12 8ZM12 9H11V13.5C11 14.0523 11.4477 14.5 12 14.5C12.5523 14.5 13 14.0523 13 13.5V9H12Z" fill="white"/>
<path fill-rule="evenodd" clip-rule="evenodd" d="M12 15.5C12.5523 15.5 13 15.9477 13 16.5V17C13 17.5523 12.5523 18 12 18C11.4477 18 11 17.5523 11 17V16.5C11 15.9477 11.4477 15.5 12 15.5Z" fill="white"/>
</svg>
